<?xml version="1.0" encoding="UTF-8"?>
<svg version="1.1" xmlns="http://www.w3.org/2000/svg" width="267" height="212">
<path d="M0 0 C9.42384486 -0.0698947 18.84759876 -0.1230098 28.27164745 -0.15543652 C32.64888433 -0.17100949 37.02594225 -0.19209229 41.40307617 -0.22631836 C45.6371108 -0.2592136 49.87097465 -0.27691572 54.10512733 -0.28463173 C55.71044918 -0.29012167 57.315763 -0.30084 58.92101097 -0.31719017 C71.04403236 -0.43561728 83.12449657 -0.04760752 93.75 6.5 C94.73484375 7.0878125 95.7196875 7.675625 96.734375 8.28125 C99 10 99 10 100 13 C100.66 13 101.32 13 102 13 C109.8189126 22.28163434 112.26070927 34.05898871 111.27490234 45.88867188 C109.99220874 55.7401233 106.41339781 65.36121352 100 73 C99.51144531 73.598125 99.02289063 74.19625 98.51953125 74.8125 C89.70434137 84.56362362 76.71084241 90.97607523 63.67926025 92.35014343 C60.27253506 92.45760319 56.88828684 92.45138918 53.48046875 92.390625 C52.25588455 92.38496521 51.03130035 92.37930542 49.76960754 92.37347412 C45.90848503 92.35131755 42.04833581 92.30115927 38.1875 92.25 C35.54884165 92.22990828 32.91016856 92.21166224 30.27148438 92.1953125 C23.84733151 92.15152088 17.42373532 92.08481956 11 92 C13.04668448 79.37418132 13.04668448 79.37418132 14.3671875 73.66796875 C14.73058228 72.08109253 14.73058228 72.08109253 15.10131836 70.4621582 C15.63164181 68.21752947 16.17203698 65.97526336 16.72094727 63.73510742 C18.4705687 56.68658162 18.4705687 56.68658162 19.47265625 49.5078125 C20.19072713 43.79945068 21.06468144 40.70067413 25.37207031 36.91552734 C31.74319896 32.09136479 38.62988532 27.16410934 46 24 C46.99 24.33 47.98 24.66 49 25 C48.3309453 31.29352553 47.12439459 37.33971958 45.6875 43.5 C45.46674805 44.45745117 45.24599609 45.41490234 45.01855469 46.40136719 C39.58591076 69.82817848 39.58591076 69.82817848 38 73 C60.4060137 73.28552915 60.4060137 73.28552915 79.41796875 62.9140625 C85.35065201 55.73624818 87.79406113 46.21110912 87 37 C86.12959487 33.29197351 85.10699116 29.6438459 84 26 C83.34 26 82.68 26 82 26 C82 25.34 82 24.68 82 24 C75.99117435 21.71054457 70.6053174 20.50456807 64.1875 20.3125 C63.37055664 20.27833984 62.55361328 20.24417969 61.71191406 20.20898438 C56.70603628 20.02181306 51.70528731 19.96935028 46.69628906 19.9909668 C45.05892861 19.99701294 43.42151527 19.99450411 41.78417969 19.98364258 C37.17391566 19.95633907 32.61467167 20.07207611 28.01171875 20.34375 C13.49983768 20.88514273 13.49983768 20.88514273 8.91894531 17.43066406 C4.57753715 12.76265883 0 6.55762303 0 0 Z " fill="#040556" transform="translate(30,66)"/>
<path d="M0 0 C-0.90046376 2.83002896 -1.76474505 5.54255983 -3.125 8.1875 C-4.21737453 10.11483327 -4.21737453 10.11483327 -4 13 C-2.30732231 14.60695448 -2.30732231 14.60695448 -0.0625 16.125 C19.38399477 30.77064138 31.67835083 53.07345667 35.31030273 77.04833984 C38.40622306 100.57510906 32.09462425 124.04657346 18.2109375 143.16796875 C17.48132813 144.10253906 16.75171875 145.03710938 16 146 C15.5659082 146.55896973 15.13181641 147.11793945 14.68457031 147.69384766 C13.50581529 149.170098 12.2573956 150.59012951 11 152 C10.34 152 9.68 152 9 152 C9 152.66 9 153.32 9 154 C-11.61289119 172.866036 -35.24514359 180.23389028 -62.93701172 179.23095703 C-74.09821708 178.38937404 -85.18461193 174.2380196 -95 169 C-95.825 168.56042969 -96.65 168.12085938 -97.5 167.66796875 C-107.31742012 162.09965078 -117.18547533 154.88270746 -123 145 C-123 144.01 -123 143.02 -123 142 C-116.49412615 141.09792505 -110.04630546 140.21624483 -104.44921875 144.16796875 C-102.70391631 145.56636633 -101.03116123 147.02764817 -99.35424805 148.50708008 C-84.74034048 161.32993671 -66.43186278 165.94545249 -47.35742188 165.17041016 C-26.47281784 163.66073186 -8.89962314 151.88408211 5 137 C5.56847656 136.39800781 6.13695312 135.79601562 6.72265625 135.17578125 C18.16961932 121.59205174 22.3476882 100.27814266 21.20263672 83.10644531 C19.08927149 61.13763188 9.49411271 42.99303804 -7.0546875 28.4609375 C-9.03677232 26.811722 -9.03677232 26.811722 -12 26 C-13.65 29.3 -15.3 32.6 -17 36 C-17.99 36 -18.98 36 -20 36 C-21.16333008 34.61401367 -21.16333008 34.61401367 -22.26953125 32.66796875 C-22.68098389 31.95664795 -23.09243652 31.24532715 -23.51635742 30.51245117 C-23.94408447 29.74521729 -24.37181152 28.9779834 -24.8125 28.1875 C-25.47245972 27.027948 -25.47245972 27.027948 -26.14575195 25.8449707 C-27.02819377 24.2900535 -27.90577883 22.73236929 -28.77832031 21.171875 C-29.83735361 19.28914915 -30.92764801 17.42407287 -32.0234375 15.5625 C-32.57257813 14.61375 -33.12171875 13.665 -33.6875 12.6875 C-34.16574219 11.86636719 -34.64398438 11.04523437 -35.13671875 10.19921875 C-36.1557223 7.60329568 -35.77435302 6.60358714 -35 4 C-30.66812912 3.32359491 -26.33430161 2.66063506 -22 2 C-20.77925781 1.80921875 -19.55851562 1.6184375 -18.30078125 1.421875 C-12.13096789 0.48806541 -6.24090378 -0.24963615 0 0 Z " fill="#1315AF" transform="translate(191,21)"/>
<path d="M0 0 C5.76169073 -0.07484211 11.52309084 -0.12892549 17.28515625 -0.16479492 C19.2402846 -0.1797675 21.19538003 -0.20015281 23.15039062 -0.22631836 C52.02542098 -0.60275664 52.02542098 -0.60275664 63 9 C69.62862588 16.06728495 70.49043167 24.01486837 70.30078125 33.4375 C69.42000862 43.86950833 64.76338601 51.12454377 57 58 C53.77828397 60.24489531 50.49172491 62.20675506 47 64 C48.80371365 70.75292793 52.67585562 76.33047527 56.36328125 82.1875 C56.85699219 83.00476563 57.35070312 83.82203125 57.859375 84.6640625 C58.31795898 85.40092285 58.77654297 86.1377832 59.24902344 86.89697266 C60 89 60 89 59.13378906 91.27099609 C58.75963867 91.84156738 58.38548828 92.41213867 58 93 C50.38933014 94.01952797 42.26834976 94.89879925 35 92 C29.00718205 86.29501285 25.453583 77.80885118 23 70 C23 69.01 23 68.02 23 67 C20.36 67 17.72 67 15 67 C14 65 14 65 14.48828125 63.1171875 C14.89626953 62.00730469 14.89626953 62.00730469 15.3125 60.875 C16.41924875 57.76604215 17.34173153 54.72020752 18.0625 51.5 C18.371875 50.345 18.68125 49.19 19 48 C21.86352308 46.56823846 24.49627496 46.80619594 27.6875 46.6875 C34.84906479 46.21055153 38.99242856 45.29862674 43.9375 39.875 C45.71482513 35.0657673 45.94875575 29.69215465 44.23046875 24.81640625 C42.69332537 22.54728984 41.53092346 22.02930066 39 21 C36.44253854 20.61095736 36.44253854 20.61095736 33.68359375 20.5078125 C32.67232422 20.44207031 31.66105469 20.37632813 30.61914062 20.30859375 C28.4945878 20.18599831 26.36955627 20.07143952 24.24414062 19.96484375 C23.23416016 19.89652344 22.22417969 19.82820313 21.18359375 19.7578125 C20.26118896 19.7077002 19.33878418 19.65758789 18.38842773 19.60595703 C16 19 16 19 14.17602539 17.07763672 C13 15 13 15 13 13 C12.34 13 11.68 13 11 13 C9.80384774 11.53803612 8.61074902 10.07333831 7.44140625 8.58984375 C5.8540764 6.70695034 5.8540764 6.70695034 2.6875 4.8125 C1.800625 4.214375 0.91375 3.61625 0 3 C0 2.01 0 1.02 0 0 Z " fill="#1416BC" transform="translate(125,66)"/>
<path d="M0 0 C-0.90046376 2.83002896 -1.76474505 5.54255983 -3.125 8.1875 C-4.21737453 10.11483327 -4.21737453 10.11483327 -4 13 C-2.30732231 14.60695448 -2.30732231 14.60695448 -0.0625 16.125 C19.38399477 30.77064138 31.67835083 53.07345667 35.31030273 77.04833984 C38.40622306 100.57510906 32.09462425 124.04657346 18.2109375 143.16796875 C17.48132813 144.10253906 16.75171875 145.03710938 16 146 C15.5659082 146.55896973 15.13181641 147.11793945 14.68457031 147.69384766 C13.50581529 149.170098 12.2573956 150.59012951 11 152 C10.34 152 9.68 152 9 152 C9 152.66 9 153.32 9 154 C-11.61289119 172.866036 -35.24514359 180.23389028 -62.93701172 179.23095703 C-74.09821708 178.38937404 -85.18461193 174.2380196 -95 169 C-95.825 168.56042969 -96.65 168.12085938 -97.5 167.66796875 C-107.31742012 162.09965078 -117.18547533 154.88270746 -123 145 C-123 144.01 -123 143.02 -123 142 C-116.49412615 141.09792505 -110.04630546 140.21624483 -104.44921875 144.16796875 C-102.70391631 145.56636633 -101.03116123 147.02764817 -99.35424805 148.50708008 C-84.74034048 161.32993671 -66.43186278 165.94545249 -47.35742188 165.17041016 C-26.47281784 163.66073186 -8.89962314 151.88408211 5 137 C5.56847656 136.39800781 6.13695312 135.79601562 6.72265625 135.17578125 C18.16961932 121.59205174 22.3476882 100.27814266 21.20263672 83.10644531 C19.08927149 61.13763188 9.49411271 42.99303804 -7.0546875 28.4609375 C-9.03677232 26.811722 -9.03677232 26.811722 -12 26 C-13.65 29.3 -15.3 32.6 -17 36 C-17.99 36 -18.98 36 -20 36 C-21.16333008 34.61401367 -21.16333008 34.61401367 -22.26953125 32.66796875 C-22.68098389 31.95664795 -23.09243652 31.24532715 -23.51635742 30.51245117 C-23.94408447 29.74521729 -24.37181152 28.9779834 -24.8125 28.1875 C-25.47245972 27.027948 -25.47245972 27.027948 -26.14575195 25.8449707 C-27.02819377 24.2900535 -27.90577883 22.73236929 -28.77832031 21.171875 C-29.83735361 19.28914915 -30.92764801 17.42407287 -32.0234375 15.5625 C-32.57257813 14.61375 -33.12171875 13.665 -33.6875 12.6875 C-34.16574219 11.86636719 -34.64398438 11.04523437 -35.13671875 10.19921875 C-36.1557223 7.60329568 -35.77435302 6.60358714 -35 4 C-30.66812912 3.32359491 -26.33430161 2.66063506 -22 2 C-20.77925781 1.80921875 -19.55851562 1.6184375 -18.30078125 1.421875 C-12.13096789 0.48806541 -6.24090378 -0.24963615 0 0 Z M-22.4375 4.375 C-23.34693359 4.50132813 -24.25636719 4.62765625 -25.19335938 4.7578125 C-26.05638672 4.88671875 -26.91941406 5.015625 -27.80859375 5.1484375 C-28.98119751 5.32125244 -28.98119751 5.32125244 -30.17749023 5.49755859 C-30.77891846 5.66336426 -31.38034668 5.82916992 -32 6 C-32.33 6.66 -32.66 7.32 -33 8 C-32.05408358 10.27295942 -32.05408358 10.27295942 -30.5625 12.8125 C-29.74072266 14.27042969 -29.74072266 14.27042969 -28.90234375 15.7578125 C-25.69223429 21.22884094 -22.36728006 26.62431686 -19 32 C-16.90192055 29.32255812 -15.60323234 27.37810112 -15 24 C-11.37315414 23.67028674 -9.45723748 23.72723874 -6.2890625 25.6171875 C12.76214624 41.76322658 21.74668751 62.54593866 24.22265625 87.21875 C24.76237967 99.42119251 21.38255482 112.17372496 16 123 C15.54625 123.93328125 15.0925 124.8665625 14.625 125.828125 C8.9946029 136.78291935 1.39339488 145.12364605 -8 153 C-9.16982422 154.02480469 -9.16982422 154.02480469 -10.36328125 155.0703125 C-13.44685013 157.32702809 -16.44251308 158.60859391 -20 160 C-20.65258789 160.2568457 -21.30517578 160.51369141 -21.97753906 160.77832031 C-24.02128712 161.57556883 -26.07174303 162.35260277 -28.125 163.125 C-28.81464844 163.38925781 -29.50429687 163.65351563 -30.21484375 163.92578125 C-47.07006844 170.27468998 -68.20038605 168.28050978 -84.5703125 161.22265625 C-92.83980325 157.06132087 -101.42168935 151.57831065 -108 145 C-109.85287502 144.92773498 -111.70833878 144.9161878 -113.5625 144.9375 C-114.57441406 144.94652344 -115.58632812 144.95554688 -116.62890625 144.96484375 C-117.41136719 144.97644531 -118.19382812 144.98804688 -119 145 C-118.34 146.32 -117.68 147.64 -117 149 C-116.34 149 -115.68 149 -115 149 C-114.7421875 149.59296875 -114.484375 150.1859375 -114.21875 150.796875 C-112.90230105 153.17660965 -111.57419218 154.50978792 -109.5 156.25 C-108.8915625 156.77078125 -108.283125 157.2915625 -107.65625 157.828125 C-106.06604179 159.19252997 -106.06604179 159.19252997 -104 159 C-103.67 159.99 -103.34 160.98 -103 162 C-85.53151147 175.04608637 -62.31475913 179.53144614 -41.00390625 176.5 C-21.64031155 172.9537017 -2.57550812 164.71938515 10 149 C10 148.34 10 147.68 10 147 C10.99 146.67 11.98 146.34 13 146 C29.82591189 125.6166096 34.3778956 101.4437994 32.796875 75.69140625 C31.37417332 64.78918139 27.08286992 52.20519411 21 43 C20.51402344 42.24460938 20.02804688 41.48921875 19.52734375 40.7109375 C14.94485205 33.97793987 9.87922573 27.65351505 4 22 C3.34 22 2.68 22 2 22 C1.401875 21.21625 0.80375 20.4325 0.1875 19.625 C-2.12440644 16.85071227 -3.60508111 16.03733633 -7 15 C-6.40075776 10.80530429 -5.42500059 6.99000166 -4 3 C-10.28469498 2.83866594 -16.22787087 3.43153553 -22.4375 4.375 Z " fill="#0C0C66" transform="translate(191,21)"/>
<path d="M0 0 C9.42384486 -0.0698947 18.84759876 -0.1230098 28.27164745 -0.15543652 C32.64888433 -0.17100949 37.02594225 -0.19209229 41.40307617 -0.22631836 C45.6371108 -0.2592136 49.87097465 -0.27691572 54.10512733 -0.28463173 C55.71044918 -0.29012167 57.315763 -0.30084 58.92101097 -0.31719017 C71.04403236 -0.43561728 83.12449657 -0.04760752 93.75 6.5 C94.73484375 7.0878125 95.7196875 7.675625 96.734375 8.28125 C99 10 99 10 100 13 C100.66 13 101.32 13 102 13 C103.2890625 14.75 103.2890625 14.75 104.625 17 C105.07101563 17.7425 105.51703125 18.485 105.9765625 19.25 C106.48316406 20.11625 106.48316406 20.11625 107 21 C101.77423867 20.68328719 98.36326937 17.78934392 95 14 C94.0625 11.125 94.0625 11.125 94 9 C93.113125 8.896875 92.22625 8.79375 91.3125 8.6875 C88 8 88 8 85.6875 6.5 C78.06999626 2.24837 67.03013947 3.78391559 58.46484375 3.68359375 C56.97554502 3.66298298 55.4862516 3.64198556 53.9969635 3.62062073 C50.10580788 3.56582518 46.21460327 3.51623121 42.32336426 3.46777344 C38.34118365 3.41724487 34.35907287 3.36172367 30.37695312 3.30664062 C22.5846948 3.19958035 14.79237781 3.09802305 7 3 C7.76429661 4.44098611 8.53672555 5.87766054 9.3125 7.3125 C9.95638672 8.51326172 9.95638672 8.51326172 10.61328125 9.73828125 C11.92758189 11.88188709 13.03746955 13.43639072 15 15 C17.56818794 15.25006882 19.8873288 15.32565891 22.44921875 15.2578125 C23.54638969 15.24788773 23.54638969 15.24788773 24.66572571 15.23776245 C27.00674522 15.21436643 29.34681919 15.17073052 31.6875 15.125 C34.01021674 15.08973046 36.33286799 15.05886012 38.65571594 15.03366089 C40.09948236 15.01693342 41.54319591 14.9940082 42.98674011 14.96365356 C47.77232249 14.89399464 52.27307224 15.35359059 57 16 C58.81253753 16.01726226 60.62598996 16.00091664 62.4375 15.9375 C69.91841055 15.87524554 75.63382281 17.04264661 82 21 C85.19395026 21.71401232 85.19395026 21.71401232 88 22 C89.04449911 25.13349732 88.93423645 25.98968256 88 29 C88.66 29.33 89.32 29.66 90 30 C90.05834353 33.22909006 90.09371115 36.45804338 90.125 39.6875 C90.14175781 40.59951172 90.15851563 41.51152344 90.17578125 42.45117188 C90.21000847 47.1574145 90.06854035 50.68304623 88 55 C88.020625 56.093125 88.04125 57.18625 88.0625 58.3125 C86.32035541 64.35876652 81.14536066 66.76657663 76 70 C75.15566406 70.56847656 74.31132813 71.13695312 73.44140625 71.72265625 C70.74996194 73.13081991 69.19148244 73.32200668 66.1875 73.1875 C65.39730469 73.16042969 64.60710937 73.13335937 63.79296875 73.10546875 C63.20128906 73.07066406 62.60960937 73.03585938 62 73 C64.49621392 71.33585739 66.50733759 70.34322907 69.25 69.25 C76.22726728 66.16411919 81.08837769 62.18938881 84.22265625 55.140625 C87.97470215 44.80835791 87.15785764 36.39461474 84 26 C83.34 26 82.68 26 82 26 C82 25.34 82 24.68 82 24 C75.99117435 21.71054457 70.6053174 20.50456807 64.1875 20.3125 C63.37055664 20.27833984 62.55361328 20.24417969 61.71191406 20.20898438 C56.70603628 20.02181306 51.70528731 19.96935028 46.69628906 19.9909668 C45.05892861 19.99701294 43.42151527 19.99450411 41.78417969 19.98364258 C37.17391566 19.95633907 32.61467167 20.07207611 28.01171875 20.34375 C13.49983768 20.88514273 13.49983768 20.88514273 8.91894531 17.43066406 C4.57753715 12.76265883 0 6.55762303 0 0 Z " fill="#090837" transform="translate(30,66)"/>
<path d="M0 0 C5.76169073 -0.07484211 11.52309084 -0.12892549 17.28515625 -0.16479492 C19.2402846 -0.1797675 21.19538003 -0.20015281 23.15039062 -0.22631836 C52.02542098 -0.60275664 52.02542098 -0.60275664 63 9 C69.62862588 16.06728495 70.49043167 24.01486837 70.30078125 33.4375 C69.42000862 43.86950833 64.76338601 51.12454377 57 58 C53.77828397 60.24489531 50.49172491 62.20675506 47 64 C48.80371365 70.75292793 52.67585562 76.33047527 56.36328125 82.1875 C56.85699219 83.00476563 57.35070312 83.82203125 57.859375 84.6640625 C58.31795898 85.40092285 58.77654297 86.1377832 59.24902344 86.89697266 C60 89 60 89 59.13378906 91.27099609 C58.75963867 91.84156738 58.38548828 92.41213867 58 93 C50.38721892 94.01981079 42.27140143 94.8955132 35 92 C29.10050969 86.4234929 25.07426899 77.80451835 23 70 C23.495 68.515 23.495 68.515 24 67 C26.31397285 69.12829134 27.76620064 71.14600065 29.19140625 73.94140625 C29.57876953 74.68970703 29.96613281 75.43800781 30.36523438 76.20898438 C30.76033203 76.98564453 31.15542969 77.76230469 31.5625 78.5625 C32.35207437 80.10720849 33.14490308 81.65025905 33.94140625 83.19140625 C34.46263062 84.21536499 34.46263062 84.21536499 34.99438477 85.26000977 C35.99904021 87.17130001 35.99904021 87.17130001 38 89 C39.93257855 89.36831081 39.93257855 89.36831081 42.1328125 89.4140625 C42.93847656 89.45273438 43.74414062 89.49140625 44.57421875 89.53125 C45.41597656 89.5621875 46.25773437 89.593125 47.125 89.625 C47.97449219 89.66367188 48.82398438 89.70234375 49.69921875 89.7421875 C51.79911684 89.83656494 53.89952891 89.91937586 56 90 C55.37351563 88.84242188 54.74703125 87.68484375 54.1015625 86.4921875 C53.27579507 84.95325729 52.45028797 83.41418738 51.625 81.875 C51.2125 81.11445313 50.8 80.35390625 50.375 79.5703125 C43.54983688 66.80065247 43.54983688 66.80065247 45 61 C48.95081012 57.89009626 53.23617373 55.58794209 58 54 C59.00916033 52.23408113 59.00916033 52.23408113 60 50 C60.66 49.05125 61.32 48.1025 62 47.125 C67.08872405 39.17386866 66.92554899 30.1397963 66 21 C64.47755204 14.99671089 61.09083614 11.49371108 56 8 C45.52143232 2.45252299 33.89291608 2.72811426 22.3125 2.875 C20.9173242 2.88505941 19.5221413 2.89417998 18.12695312 2.90234375 C14.7511163 2.92570594 11.37565382 2.95846332 8 3 C7.77714672 5.10754984 7.77714672 5.10754984 9.42578125 6.5859375 C10.04839844 7.17632812 10.67101562 7.76671875 11.3125 8.375 C14.87008914 11.7610492 14.87008914 11.7610492 16.19140625 14.19140625 C19.11650639 17.11650639 22.71676413 16.54710081 26.625 16.5625 C40.72562562 17.03140109 40.72562562 17.03140109 45 20 C47.93208607 23.57827584 48.8794132 27.01807892 49.4375 31.5625 C48.63494259 37.8683082 46.30296968 42.52014968 41.6484375 46.77734375 C35.71741443 51.1764201 27.9998187 50.20689119 21 50 C20.95101562 50.58007812 20.90203125 51.16015625 20.8515625 51.7578125 C20.40350595 56.43923092 19.701979 60.57485459 18 65 C19.32 65.33 20.64 65.66 22 66 C22 66.33 22 66.66 22 67 C19.69 67 17.38 67 15 67 C14 65 14 65 14.48828125 63.1171875 C14.89626953 62.00730469 14.89626953 62.00730469 15.3125 60.875 C16.41924875 57.76604215 17.34173153 54.72020752 18.0625 51.5 C18.371875 50.345 18.68125 49.19 19 48 C21.86352308 46.56823846 24.49627496 46.80619594 27.6875 46.6875 C34.84906479 46.21055153 38.99242856 45.29862674 43.9375 39.875 C45.71482513 35.0657673 45.94875575 29.69215465 44.23046875 24.81640625 C42.69332537 22.54728984 41.53092346 22.02930066 39 21 C36.44253854 20.61095736 36.44253854 20.61095736 33.68359375 20.5078125 C32.67232422 20.44207031 31.66105469 20.37632813 30.61914062 20.30859375 C28.4945878 20.18599831 26.36955627 20.07143952 24.24414062 19.96484375 C23.23416016 19.89652344 22.22417969 19.82820313 21.18359375 19.7578125 C20.26118896 19.7077002 19.33878418 19.65758789 18.38842773 19.60595703 C16 19 16 19 14.17602539 17.07763672 C13 15 13 15 13 13 C12.34 13 11.68 13 11 13 C9.80384774 11.53803612 8.61074902 10.07333831 7.44140625 8.58984375 C5.8540764 6.70695034 5.8540764 6.70695034 2.6875 4.8125 C1.800625 4.214375 0.91375 3.61625 0 3 C0 2.01 0 1.02 0 0 Z " fill="#14146D" transform="translate(125,66)"/>
<path d="M0 0 C1.9375 1.625 1.9375 1.625 3 4 C2.9375 7.0625 2.9375 7.0625 2 10 C-0.79198977 12.57247215 -3.99989969 13.98802629 -7.43237305 15.54956055 C-17.5803293 20.21433723 -25.13240418 26.23574179 -32.375 34.8125 C-35.84096182 37.70080152 -37.86847737 37.52016461 -42.3125 37.3125 C-43.56675781 37.26738281 -44.82101563 37.22226562 -46.11328125 37.17578125 C-47.54220703 37.08876953 -47.54220703 37.08876953 -49 37 C-49.33 36.34 -49.66 35.68 -50 35 C-48 32.33333333 -46 29.66666667 -44 27 C-43.48050781 26.25234375 -42.96101563 25.5046875 -42.42578125 24.734375 C-41.95527344 24.16203125 -41.48476562 23.5896875 -41 23 C-40.34 23 -39.68 23 -39 23 C-38.67 22.01 -38.34 21.02 -38 20 C-37.34 20 -36.68 20 -36 20 C-36 19.34 -36 18.68 -36 18 C-27.69302851 10.00545886 -12.34043768 -2.00890846 0 0 Z " fill="#383EB5" transform="translate(114,24)"/>
<path d="M0 0 C0.66 0 1.32 0 2 0 C4.44697666 4.36200187 5.50269348 8.02693484 6 13 C10.29 13 14.58 13 19 13 C16.59285042 17.81429916 14.13037629 19.6345082 10 23 C11.32 27.29 12.64 31.58 14 36 C8.03061224 34.80612245 8.03061224 34.80612245 5 32 C5 31.34 5 30.68 5 30 C-0.3900915 30.42275227 -2.94728488 31.49494909 -7 35 C-9.3125 35.75 -9.3125 35.75 -11 36 C-10.35812082 30.86496656 -9.31727753 26.0056546 -8 21 C-8.556875 20.7525 -9.11375 20.505 -9.6875 20.25 C-12.42410913 18.77075182 -14.67650869 17.06532561 -17 15 C-17 14.34 -17 13.68 -17 13 C-10.565 12.505 -10.565 12.505 -4 12 C-3.525625 10.576875 -3.05125 9.15375 -2.5625 7.6875 C-1.70833333 5.125 -0.85416667 2.5625 0 0 Z " fill="#0C0D69" transform="translate(134,4)"/>
<path d="M0 0 C2 3 2 3 1.79980469 5.58447266 C1.59258789 6.6007373 1.38537109 7.61700195 1.171875 8.6640625 C0.94886719 9.78683594 0.72585937 10.90960938 0.49609375 12.06640625 C0.24988281 13.24074219 0.00367188 14.41507813 -0.25 15.625 C-0.48074219 16.77613281 -0.71148437 17.92726563 -0.94921875 19.11328125 C-1.61514072 22.41279293 -2.30499602 25.70651097 -3 29 C-3.16951172 29.84530273 -3.33902344 30.69060547 -3.51367188 31.56152344 C-4.55727959 36.60418397 -6.08662817 41.21657043 -8 46 C-6.91847656 45.9278125 -5.83695313 45.855625 -4.72265625 45.78125 C6.16291959 45.10818801 16.98966639 44.91570335 27.89624023 45.03710938 C28.92177002 45.04548828 29.9472998 45.05386719 31.00390625 45.0625 C31.91986572 45.07410156 32.8358252 45.08570313 33.77954102 45.09765625 C36.04099164 45.1492886 36.04099164 45.1492886 38 44 C39.68750779 43.9798076 41.37575372 44.00793577 43.0625 44.0625 C48.36401732 44.12544678 52.88218353 43.34237809 58 42 C58 42.99 58 43.98 58 45 C48.95851113 48.2878565 41.07185995 49.56164733 31.48046875 49.390625 C30.25588455 49.38496521 29.03130035 49.37930542 27.76960754 49.37347412 C23.90848503 49.35131755 20.04833581 49.30115927 16.1875 49.25 C13.54884165 49.22990828 10.91016856 49.21166224 8.27148438 49.1953125 C1.84733151 49.15152088 -4.57626468 49.08481956 -11 49 C-8.960253 36.4028926 -8.960253 36.4028926 -7.59765625 30.52734375 C-7.22157227 28.90022461 -7.22157227 28.90022461 -6.83789062 27.24023438 C-6.58201172 26.15033203 -6.32613281 25.06042969 -6.0625 23.9375 C-5.68448242 22.2968457 -5.68448242 22.2968457 -5.29882812 20.62304688 C-3.6891044 13.70246994 -1.9228952 6.84009852 0 0 Z " fill="#09092B" transform="translate(52,109)"/>
<path d="M0 0 C0.99 0.33 1.98 0.66 3 1 C2.3309453 7.29352553 1.12439459 13.33971958 -0.3125 19.5 C-0.53325195 20.45745117 -0.75400391 21.41490234 -0.98144531 22.40136719 C-6.41408924 45.82817848 -6.41408924 45.82817848 -8 49 C-0.41 49 7.18 49 15 49 C15 49.33 15 49.66 15 50 C13.41058594 50.09087891 13.41058594 50.09087891 11.7890625 50.18359375 C10.40102779 50.26800127 9.01300768 50.35264917 7.625 50.4375 C6.92632812 50.47681641 6.22765625 50.51613281 5.5078125 50.55664062 C1.62639508 50.74280134 1.62639508 50.74280134 -2 52 C-2 51.34 -2 50.68 -2 50 C-4.64 50 -7.28 50 -10 50 C-9.43846914 37.43332655 -8.03003631 25.64133064 -3 14 C-2.45551022 11.65119741 -2.45551022 11.65119741 -2.3125 9.5625 C-2.209375 8.386875 -2.10625 7.21125 -2 6 C-2.66 6 -3.32 6 -4 6 C-4.33 6.99 -4.66 7.98 -5 9 C-6.671875 10.0625 -6.671875 10.0625 -8.75 11 C-11.16282836 12.12684676 -13.40276476 13.24353218 -15.6875 14.625 C-18.05746782 16.03417005 -20.418966 17.04133023 -23 18 C-22.66922007 15.15088736 -22.24704816 14.19901433 -19.97460938 12.3684082 C-19.10642578 11.85109131 -18.23824219 11.33377441 -17.34375 10.80078125 C-16.40402344 10.23166016 -15.46429688 9.66253906 -14.49609375 9.07617188 C-13.01302734 8.2031543 -13.01302734 8.2031543 -11.5 7.3125 C-9.55161494 6.14270688 -7.60367376 4.97217401 -5.65625 3.80078125 C-4.35397461 3.02988159 -4.35397461 3.02988159 -3.02539062 2.2434082 C-1.07921622 1.15677 -1.07921622 1.15677 0 0 Z " fill="#0D0C34" transform="translate(76,90)"/>
<path d="M0 0 C1.9375 1.625 1.9375 1.625 3 4 C2.9375 7.0625 2.9375 7.0625 2 10 C-0.79198977 12.57247215 -3.99989969 13.98802629 -7.43237305 15.54956055 C-17.5803293 20.21433723 -25.13240418 26.23574179 -32.375 34.8125 C-35.84096182 37.70080152 -37.86847737 37.52016461 -42.3125 37.3125 C-43.56675781 37.26738281 -44.82101563 37.22226562 -46.11328125 37.17578125 C-47.54220703 37.08876953 -47.54220703 37.08876953 -49 37 C-49.33 36.34 -49.66 35.68 -50 35 C-48 32.33333333 -46 29.66666667 -44 27 C-43.48050781 26.25234375 -42.96101563 25.5046875 -42.42578125 24.734375 C-41.95527344 24.16203125 -41.48476562 23.5896875 -41 23 C-40.34 23 -39.68 23 -39 23 C-38.67 22.01 -38.34 21.02 -38 20 C-37.34 20 -36.68 20 -36 20 C-36 19.34 -36 18.68 -36 18 C-27.69302851 10.00545886 -12.34043768 -2.00890846 0 0 Z M-14.125 5.875 C-14.84042969 6.23980469 -15.55585937 6.60460937 -16.29296875 6.98046875 C-19.32096824 8.53691709 -22.16103154 10.10735436 -25 12 C-25 12.66 -25 13.32 -25 14 C-25.56203125 14.08378906 -26.1240625 14.16757812 -26.703125 14.25390625 C-35.07989139 16.97493071 -42.0829024 27.07760562 -47 34 C-47 34.33 -47 34.66 -47 35 C-40.20920325 35.80361574 -40.20920325 35.80361574 -33.93359375 33.734375 C-32.07915208 31.97454545 -32.07915208 31.97454545 -30 29 C-30 28.34 -30 27.68 -30 27 C-29.41605469 26.72800781 -28.83210938 26.45601562 -28.23046875 26.17578125 C-26.03327378 25.01754012 -24.25378476 23.72994638 -22.3125 22.1875 C-18.09915542 18.97287414 -13.66930442 16.48400706 -9 14 C-7.31080746 13.06555306 -5.6232522 12.12813916 -3.9375 11.1875 C-2.625 10.45833333 -1.3125 9.72916667 0 9 C0.04254356 7.00045254 0.04080783 4.99958364 0 3 C-1.0116424 1.78977885 -1.0116424 1.78977885 -3.0546875 1.6953125 C-7.25088532 2.12940193 -10.42586323 3.92773128 -14.125 5.875 Z " fill="#222568" transform="translate(114,24)"/>
<path d="M0 0 C3.47831138 2.68778606 3.99814842 5.8404137 5 10 C6.40838558 23.74287823 4.02261368 37.8305794 -4.41015625 49.1171875 C-9.52131727 55.17020865 -15.03007571 60.12466531 -22 64 C-22.66 64 -23.32 64 -24 64 C-23.690625 63.4225 -23.38125 62.845 -23.0625 62.25 C-22.07416636 60.15705816 -21.4831387 58.25464725 -21 56 C-19.989375 56 -18.97875 56 -17.9375 56 C-13.3530988 55.36509311 -11.26917459 52.59427687 -8.3828125 49.203125 C-6.86109539 46.77869435 -6.38421877 44.81760429 -6 42 C-5.01 42 -4.02 42 -3 42 C-2.896875 41.195625 -2.79375 40.39125 -2.6875 39.5625 C-2.1444921 36.7487318 -1.49579827 34.63786824 -0.47265625 32.015625 C1.42846613 26.40036285 1.37076468 21.06345637 1.25 15.1875 C1.24484375 14.16462891 1.2396875 13.14175781 1.234375 12.08789062 C1.18233025 5.97205276 1.18233025 5.97205276 0 0 Z " fill="#0D0B35" transform="translate(136,88)"/>
<path d="M0 0 C4.68297363 3.43418066 7.30723461 6.29334482 9 12 C9.4172476 14.80647467 9.47733121 17.54092995 9.4375 20.375 C9.42722778 21.49817627 9.42722778 21.49817627 9.41674805 22.64404297 C9.24659779 28.50817267 8.19339433 33.00899959 5 38 C4.67257813 38.6084375 4.34515625 39.216875 4.0078125 39.84375 C0.53385975 45.62521881 -5.14725472 48.89927021 -11 52 C-11.66 52 -12.32 52 -13 52 C-12.690625 53.258125 -12.38125 54.51625 -12.0625 55.8125 C-11.80146484 56.87404297 -11.80146484 56.87404297 -11.53515625 57.95703125 C-11.08989295 59.65683202 -10.55566015 61.33301954 -10 63 C-11.9375 62.6875 -11.9375 62.6875 -14 62 C-14.495 60.515 -14.495 60.515 -15 59 C-15.66 59 -16.32 59 -17 59 C-18.34427173 53.62291307 -18.34427173 53.62291307 -16.83203125 50.88671875 C-14.60477232 48.59297448 -13.09689706 48.23072928 -10 47.5625 C-5.90131707 46.57486561 -5.90131707 46.57486561 -3.1875 43.4375 C-2.795625 42.633125 -2.40375 41.82875 -2 41 C-0.79730469 40.6596875 -0.79730469 40.6596875 0.4296875 40.3125 C3.34791678 39.17349796 3.34791678 39.17349796 4.36328125 35.69140625 C4.70516133 34.32120978 5.02032556 32.94414917 5.3125 31.5625 C5.47782227 30.84835938 5.64314453 30.13421875 5.81347656 29.3984375 C7.07585566 23.57528918 7.45399311 17.95235406 7 12 C6.34 12 5.68 12 5 12 C4.67 9.69 4.34 7.38 4 5 C3.01 4.67 2.02 4.34 1 4 C0.3125 1.9375 0.3125 1.9375 0 0 Z " fill="#1414A2" transform="translate(183,75)"/>
<path d="M0 0 C0.66 0 1.32 0 2 0 C4.44697666 4.36200187 5.50269348 8.02693484 6 13 C10.29 13 14.58 13 19 13 C16.59285042 17.81429916 14.13037629 19.6345082 10 23 C11.32 27.29 12.64 31.58 14 36 C9 35 9 35 7.1875 32.9375 C6.5996875 31.9784375 6.5996875 31.9784375 6 31 C6.99 31 7.98 31 9 31 C8.01 27.7 7.02 24.4 6 21 C6.66 21 7.32 21 8 21 C8 20.34 8 19.68 8 19 C8.66 19 9.32 19 10 19 C10 17.68 10 16.36 10 15 C8.6078125 14.9690625 8.6078125 14.9690625 7.1875 14.9375 C4 14 4 14 2.93359375 12.375 C2.20025229 10.61781467 1.59224075 8.80962451 1 7 C0.01 7.495 0.01 7.495 -1 8 C-2.2077558 4.37673261 -1.54311128 3.35853631 0 0 Z " fill="#090834" transform="translate(134,4)"/>
<path d="M0 0 C5.80239614 -0.04934656 11.60467081 -0.08569402 17.40722656 -0.10986328 C19.38218309 -0.11993627 21.35712466 -0.13359521 23.33203125 -0.15087891 C26.16670418 -0.17507039 29.00118038 -0.18646991 31.8359375 -0.1953125 C32.72243988 -0.20563507 33.60894226 -0.21595764 34.52230835 -0.22659302 C36.68285952 -0.2269907 38.84293718 -0.12272534 41 0 C41.66 0.66 42.32 1.32 43 2 C31.45 2 19.9 2 8 2 C7.77714672 4.10754984 7.77714672 4.10754984 9.42578125 5.5859375 C10.04839844 6.17632812 10.67101562 6.76671875 11.3125 7.375 C14.87396884 10.76474183 14.87396884 10.76474183 16.171875 13.1875 C19.19221261 16.18202276 22.85164645 15.59916061 26.9375 15.625 C28.55093286 15.65063039 30.16426303 15.68421748 31.77734375 15.7265625 C32.49140381 15.73252441 33.20546387 15.73848633 33.94116211 15.74462891 C36.3044744 16.03776595 37.9398611 16.83362126 40 18 C22.79886686 19.47308782 22.79886686 19.47308782 16 18 C13.9375 16.0625 13.9375 16.0625 13 14 C13 13.34 13 12.68 13 12 C12.34 12 11.68 12 11 12 C9.8044893 10.53882026 8.61181963 9.07510903 7.44140625 7.59375 C5.96696689 5.96347559 4.54595626 4.90988759 2.6875 3.75 C1.800625 3.1725 0.91375 2.595 0 2 C0 1.34 0 0.68 0 0 Z " fill="#050569" transform="translate(125,67)"/>
<path d="M0 0 C0.33 0 0.66 0 1 0 C1.17499733 3.2284763 1.28106618 6.45572926 1.375 9.6875 C1.45041016 11.05551758 1.45041016 11.05551758 1.52734375 12.45117188 C1.67206768 19.08435223 1.67206768 19.08435223 -0.29199219 21.76025391 C-2.42605742 23.59918245 -4.10445966 25 -7 25 C-6.67 21.7 -6.34 18.4 -6 15 C-7.155 14.195625 -8.31 13.39125 -9.5 12.5625 C-10.68653894 11.73616038 -11.8588092 10.88791631 -13 10 C-13 9.67 -13 9.34 -13 9 C-9.7 8.67 -6.4 8.34 -3 8 C-2.01 5.36 -1.02 2.72 0 0 Z " fill="#353AB0" transform="translate(134,10)"/>
<path d="M0 0 C0.66 0.99 1.32 1.98 2 3 C1.0625 5.9375 1.0625 5.9375 -1 9 C-3.99392117 9.84403097 -6.89910366 9.98699834 -10 10 C-7.69 11.65 -5.38 13.3 -3 15 C-3.66 18.3 -4.32 21.6 -5 25 C-2.36 23.35 0.28 21.7 3 20 C1.86363784 24.54544864 1.32338437 24.86710366 -2.4375 27.25 C-3.24058594 27.77078125 -4.04367188 28.2915625 -4.87109375 28.828125 C-7 30 -7 30 -9 30 C-8.35812082 24.86496656 -7.31727753 20.0056546 -6 15 C-6.556875 14.7525 -7.11375 14.505 -7.6875 14.25 C-10.42410913 12.77075182 -12.67650869 11.06532561 -15 9 C-15 8.34 -15 7.68 -15 7 C-8.565 6.505 -8.565 6.505 -2 6 C-1.34 4.02 -0.68 2.04 0 0 Z " fill="#171866" transform="translate(132,10)"/>
<path d="M0 0 C0.33 0 0.66 0 1 0 C0.67319128 10.45787916 -0.22970206 22.45940411 -5 32 C2.59 32 10.18 32 18 32 C18 32.33 18 32.66 18 33 C16.41058594 33.09087891 16.41058594 33.09087891 14.7890625 33.18359375 C13.40102779 33.26800127 12.01300768 33.35264917 10.625 33.4375 C9.92632812 33.47681641 9.22765625 33.51613281 8.5078125 33.55664062 C4.62639508 33.74280134 4.62639508 33.74280134 1 35 C1 34.34 1 33.68 1 33 C-1.64 33 -4.28 33 -7 33 C-5.96954315 9.93908629 -5.96954315 9.93908629 -2 2 C-1.34 2 -0.68 2 0 2 C0 1.34 0 0.68 0 0 Z " fill="#0B093B" transform="translate(73,107)"/>
<path d="M0 0 C2 2 2 2 2.265625 4.29296875 C2.24812474 7.53489185 2.14544599 10.7611662 2 14 C1.97808594 15.26972656 1.95617187 16.53945312 1.93359375 17.84765625 C1.32118514 27.55870712 1.32118514 27.55870712 -2.40625 31.625 C-5.19234654 33.66214586 -7.96108486 35.36915757 -11 37 C-11.84304687 37.55816406 -12.68609375 38.11632812 -13.5546875 38.69140625 C-16.25413574 40.13599916 -17.78681981 40.32297822 -20.8125 40.1875 C-21.60269531 40.16042969 -22.39289063 40.13335937 -23.20703125 40.10546875 C-23.79871094 40.07066406 -24.39039062 40.03585938 -25 40 C-22.50378608 38.33585739 -20.49266241 37.34322907 -17.75 36.25 C-10.77305873 33.16426337 -5.89324484 29.18592607 -2.77734375 22.125 C-0.07971163 14.75056848 0.26274045 7.80923011 0 0 Z " fill="#11113C" transform="translate(117,99)"/>
<path d="M0 0 C1 1 1 1 1.375 3.875 C1 7 1 7 -1 8.9375 C-5.10022832 10.3896642 -7.74591432 9.79313462 -12 9 C-12 9.99 -12 10.98 -12 12 C-12.99 11.67 -13.98 11.34 -15 11 C-15.0625 7.75 -15.0625 7.75 -14 4 C-9.96297089 1.11165134 -4.99527503 -0.78051172 0 0 Z " fill="#3E44BB" transform="translate(113,26)"/>
<path d="M0 0 C2.20279857 0.72733915 4.37926118 1.49455486 6.546875 2.3203125 C4.566875 3.3103125 4.566875 3.3103125 2.546875 4.3203125 C2.546875 5.3103125 2.546875 6.3003125 2.546875 7.3203125 C1.546875 8.3203125 1.546875 8.3203125 -1.015625 8.3828125 C-1.82 8.3621875 -2.624375 8.3415625 -3.453125 8.3203125 C-3.453125 7.6603125 -3.453125 7.0003125 -3.453125 6.3203125 C-5.0928125 6.3821875 -5.0928125 6.3821875 -6.765625 6.4453125 C-10.453125 6.3203125 -10.453125 6.3203125 -13.453125 4.3203125 C-13.453125 2.3203125 -13.453125 2.3203125 -11.890625 0.6953125 C-7.89294243 -1.55979049 -4.35901511 -1.20775259 0 0 Z " fill="#161AB4" transform="translate(120.453125,186.6796875)"/>
<path d="M0 0 C0 0.99 0 1.98 0 3 C-2.07914664 3.70005949 -4.16351586 4.38462244 -6.25 5.0625 C-7.41015625 5.44535156 -8.5703125 5.82820312 -9.765625 6.22265625 C-13.08055989 7.01936161 -13.88562217 6.83423588 -17 6 C-18.58712459 5.8891493 -20.1778453 5.82461044 -21.76855469 5.79467773 C-22.70922791 5.77473251 -23.64990112 5.75478729 -24.61907959 5.73423767 C-25.62650208 5.71752518 -26.63392456 5.70081268 -27.671875 5.68359375 C-29.22820648 5.6524221 -29.22820648 5.6524221 -30.815979 5.62062073 C-34.12725258 5.55528592 -37.43860482 5.49631483 -40.75 5.4375 C-42.99610185 5.39429951 -45.24219578 5.35068473 -47.48828125 5.30664062 C-52.99210457 5.19962097 -58.49600598 5.09782478 -64 5 C-64 4.67 -64 4.34 -64 4 C-52.72080174 3.13117592 -41.5183974 2.91205757 -30.20532227 3.03710938 C-29.16947998 3.04548828 -28.1336377 3.05386719 -27.06640625 3.0625 C-26.13771729 3.07410156 -25.20902832 3.08570313 -24.25219727 3.09765625 C-21.96372506 3.1518823 -21.96372506 3.1518823 -20 2 C-18.27082434 1.97992665 -16.54092262 2.00766728 -14.8125 2.0625 C-9.59636216 2.12410793 -4.96718505 0 0 0 Z " fill="#050445" transform="translate(110,151)"/>
<path d="M0 0 C-1.8125 1.0625 -1.8125 1.0625 -4 2 C-4.99 1.67 -5.98 1.34 -7 1 C-6.27745677 3.94049796 -6.27745677 3.94049796 -4.60546875 5.34375 C-2.5105229 7.50495934 -1.53936707 9.75889159 -0.3125 12.5 C0.34298828 13.93859375 0.34298828 13.93859375 1.01171875 15.40625 C2 18 2 18 2 21 C3.32 21 4.64 21 6 21 C6.12375 20.071875 6.12375 20.071875 6.25 19.125 C7 17 7 17 8.6875 15.6875 C11.72203131 14.78534204 13.94880471 15.30654652 17 16 C17.33 17.32 17.66 18.64 18 20 C17.46375 19.67 16.9275 19.34 16.375 19 C13.4608939 17.77300796 11.13132292 17.85766714 8 18 C7.71125 18.94875 7.4225 19.8975 7.125 20.875 C6 24 6 24 4 26 C2.41201042 23.50285607 0.82956901 21.00246326 -0.75 18.5 C-1.1934375 17.80390625 -1.636875 17.1078125 -2.09375 16.390625 C-5.03664753 11.71661128 -7.74033601 7.04585164 -10 2 C-9.67 1.34 -9.34 0.68 -9 0 C-2.57142857 -1.28571429 -2.57142857 -1.28571429 0 0 Z " fill="#1616A1" transform="translate(168,27)"/>
<path d="M0 0 C0.66 0 1.32 0 2 0 C6.89795918 4.89795918 6.89795918 4.89795918 7.3125 9.375 C7.209375 10.24125 7.10625 11.1075 7 12 C7.66 12 8.32 12 9 12 C9 13.32 9 14.64 9 16 C10.32 16 11.64 16 13 16 C13 16.66 13 17.32 13 18 C13.804375 17.4740625 13.804375 17.4740625 14.625 16.9375 C17.73274763 15.71075751 19.79431703 16.27143569 23 17 C23.66 15.35 24.32 13.7 25 12 C27.18284504 14.65737657 28.27633685 16.65569263 29 20 C26.08178537 20.13510253 23.16982348 20.2341305 20.25 20.3125 C19.425 20.35439453 18.6 20.39628906 17.75 20.43945312 C11.62775336 20.56288552 11.62775336 20.56288552 8.65625 17.8984375 C8.1096875 16.94195312 7.563125 15.98546875 7 15 C6.36578125 13.92363281 5.7315625 12.84726563 5.078125 11.73828125 C4.47484375 10.60777344 3.8715625 9.47726563 3.25 8.3125 C2.63640625 7.17425781 2.0228125 6.03601563 1.390625 4.86328125 C0 2 0 2 0 0 Z " fill="#1718A7" transform="translate(152,136)"/>
<path d="M0 0 C0.99 0.33 1.98 0.66 3 1 C2.34 1 1.68 1 1 1 C0.9071875 1.86625 0.9071875 1.86625 0.8125 2.75 C-0.40182219 6.11273836 -1.94754283 7.15580713 -5 9 C-7.99396819 9.60681767 -10.95073941 9.86713461 -14 10 C-14 10.66 -14 11.32 -14 12 C-16.64 11.67 -19.28 11.34 -22 11 C-22.93770846 14.31999482 -23.75143398 17.55249736 -24 21 C-22.3311998 23.67619113 -22.3311998 23.67619113 -20 25 C-23.10551666 25 -24.35261084 24.4606285 -27 23 C-26 18 -25 13 -24 8 C-22.90300781 7.89042969 -21.80601562 7.78085938 -20.67578125 7.66796875 C-19.22128484 7.50844334 -17.76686137 7.34825187 -16.3125 7.1875 C-15.59126953 7.11724609 -14.87003906 7.04699219 -14.12695312 6.97460938 C-8.17345655 6.29498648 -4.09859305 4.5300239 0 0 Z " fill="#1616A8" transform="translate(170,108)"/>
<path d="M0 0 C2.03448387 -0.00215593 4.06839757 -0.02022421 6.1027832 -0.03930664 C13.84289373 -0.0507396 21.08695644 0.43559325 28.63598633 2.18530273 C27.64598633 2.84530273 26.65598633 3.50530273 25.63598633 4.18530273 C24.29107643 3.90227225 22.95915923 3.55692398 21.63598633 3.18530273 C19.31949945 3.1033266 17.00077744 3.07782481 14.68286133 3.08764648 C14.02263977 3.08906143 13.36241821 3.09047638 12.68218994 3.0919342 C10.58340839 3.09751029 8.48473538 3.11005827 6.38598633 3.12280273 C4.95890454 3.12782083 3.53182107 3.1323832 2.10473633 3.13647461 C-1.38488199 3.14747185 -4.87443723 3.16471993 -8.36401367 3.18530273 C-8.69401367 4.50530273 -9.02401367 5.82530273 -9.36401367 7.18530273 C-11.01401367 5.20530273 -12.66401367 3.22530273 -14.36401367 1.18530273 C-10.14962388 -0.92189216 -4.63489244 -0.00054896 0 0 Z " fill="#1518A4" transform="translate(145.364013671875,67.814697265625)"/>
<path d="M0 0 C0.99 0.33 1.98 0.66 3 1 C0.71641254 3.55761796 -1.17970391 5.0933078 -4.25 6.6875 C-8.53761772 8.97484682 -11.25238125 12.45869622 -14.30078125 16.171875 C-14.86152344 16.77515625 -15.42226562 17.3784375 -16 18 C-16.66 18 -17.32 18 -18 18 C-18.28875 18.598125 -18.5775 19.19625 -18.875 19.8125 C-20 22 -20 22 -22 25 C-18.7 25.33 -15.4 25.66 -12 26 C-12 26.33 -12 26.66 -12 27 C-16.62 27 -21.24 27 -26 27 C-23.39559392 22.17702578 -20.73357708 18.02833317 -17 14 C-16.34 14 -15.68 14 -15 14 C-14.67 13.01 -14.34 12.02 -14 11 C-13.34 11 -12.68 11 -12 11 C-12 10.34 -12 9.68 -12 9 C-10.42945794 7.58303493 -8.79253336 6.23893184 -7.125 4.9375 C-6.22007813 4.22464844 -5.31515625 3.51179688 -4.3828125 2.77734375 C-2 1 -2 1 0 0 Z " fill="#1B1E69" transform="translate(90,33)"/>
<path d="M0 0 C-0.27714844 0.56847656 -0.55429687 1.13695313 -0.83984375 1.72265625 C-3.09785123 6.53598892 -4.48588236 10.65317651 -5 16 C-5.165 16.763125 -5.33 17.52625 -5.5 18.3125 C-6.14671383 21.78858681 -6.37269843 25.26786917 -6.62109375 28.79296875 C-7 31 -7 31 -9 33 C-9.71408334 34.98356483 -10.38617742 36.98315437 -11 39 C-12.22965867 35.31102399 -11.63940343 33.59174024 -10.75 29.828125 C-10.4715625 28.60609375 -10.193125 27.3840625 -9.90625 26.125 C-9.30554752 23.55647903 -8.70141991 20.98875652 -8.09375 18.421875 C-7.8153125 17.1946875 -7.536875 15.9675 -7.25 14.703125 C-6.98703125 13.58583008 -6.7240625 12.46853516 -6.453125 11.31738281 C-5.95184972 7.64748601 -6.31963822 4.62591458 -7 1 C-3.375 -1.125 -3.375 -1.125 0 0 Z " fill="#050546" transform="translate(59,106)"/>
<path d="M0 0 C0.66 0 1.32 0 2 0 C5 5.75 5 5.75 5 8 C5.66 8 6.32 8 7 8 C11.19728392 17.25871453 11.1770215 28.46264666 11.1875 38.5 C11.18830566 39.22856201 11.18911133 39.95712402 11.18994141 40.70776367 C11.14022934 45.54032935 10.82774813 50.2338579 10 55 C9.01 55.495 9.01 55.495 8 56 C8.0721875 55.46375 8.144375 54.9275 8.21875 54.375 C10.49858272 35.12307927 8.40158705 17.56069425 0 0 Z " fill="#1A1D60" transform="translate(203,72)"/>
<path d="M0 0 C0 0.66 0 1.32 0 2 C-2.25693432 4.25693432 -4.04141517 4.87292007 -7 6 C-7.680625 6.350625 -8.36125 6.70125 -9.0625 7.0625 C-11.02808497 8.0135895 -12.8703909 8.54365519 -15 9 C-15.66 7.35 -16.32 5.7 -17 4 C-15.16229064 1.65181582 -14.14995215 1.0333227 -11.1875 0.375 C-10.135625 0.25125 -9.08375 0.1275 -8 0 C-6.39125 -0.309375 -6.39125 -0.309375 -4.75 -0.625 C-2 -1 -2 -1 0 0 Z " fill="#1316B0" transform="translate(178,183)"/>
<path d="M0 0 C0 3 0 6 0 9 C1.32 9.33 2.64 9.66 4 10 C2.6875 12 2.6875 12 0 14 C-3.68855385 14.36089448 -7.3051649 14.22933459 -11 14 C-8.93687686 10.33584124 -6.64127824 7.29451872 -3.8125 4.1875 C-3.09707031 3.39730469 -2.38164063 2.60710938 -1.64453125 1.79296875 C-1.10183594 1.20128906 -0.55914062 0.60960937 0 0 Z " fill="#363CB1" transform="translate(78,45)"/>
<path d="M0 0 C2.31 0 4.62 0 7 0 C7 0.66 7 1.32 7 2 C9.97 2 12.94 2 16 2 C16 1.34 16 0.68 16 0 C16.66 0.33 17.32 0.66 18 1 C18 1.33 18 1.66 18 2 C26.25 2.33 34.5 2.66 43 3 C43 3.33 43 3.66 43 4 C37.73441617 4.86948214 32.64658701 5.19321101 27.3125 5.1875 C26.52520508 5.18669434 25.73791016 5.18588867 24.92675781 5.18505859 C16.3632251 5.09589155 8.03496075 4.12470696 0 1 C0 0.67 0 0.34 0 0 Z " fill="#1317A0" transform="translate(110,193)"/>
<path d="M0 0 C1.65 0.33 3.3 0.66 5 1 C5.5625 2.9375 5.5625 2.9375 6 5 C5 6 5 6 2.4375 6.0625 C1.2309375 6.0315625 1.2309375 6.0315625 0 6 C-0.2475 6.639375 -0.495 7.27875 -0.75 7.9375 C-2 10 -2 10 -4.125 10.75 C-5.053125 10.87375 -5.053125 10.87375 -6 11 C-7 9 -7 9 -6.1875 6.5 C-5 4 -5 4 -3 2 C-2.01 2 -1.02 2 0 2 C0 1.34 0 0.68 0 0 Z " fill="#1418B5" transform="translate(191,169)"/>
<path d="M0 0 C2 1 2 1 3.10180664 3.21875 C4.66539777 8.06039996 4.42564358 12.94953536 4.4375 18 C4.44136719 19.11818115 4.44523438 20.2363623 4.44921875 21.38842773 C4.33095826 29.85945126 3.17167977 36.50587527 -1 44 C-1.33 44 -1.66 44 -2 44 C-2.32120836 39.61015243 -1.57246179 36.86463461 0.265625 32.90234375 C3.46736118 24.6084846 3.10206353 13.14291677 0 5 C-0.125 2.125 -0.125 2.125 0 0 Z " fill="#050447" transform="translate(134,86)"/>
<path d="M0 0 C0.66 0.33 1.32 0.66 2 1 C1.01 1.66 0.02 2.32 -1 3 C0.81008466 9.48700863 4.25831809 14.95028967 7.63085938 20.71875 C8.07623047 21.49734375 8.52160156 22.2759375 8.98046875 23.078125 C9.39192139 23.78356445 9.80337402 24.48900391 10.22729492 25.21582031 C10.4822876 25.80459961 10.73728027 26.39337891 11 27 C10.67 27.66 10.34 28.32 10 29 C6.41294095 25.83169454 4.40504531 22.3246969 2.375 18.0625 C2.0759375 17.45470703 1.776875 16.84691406 1.46875 16.22070312 C-3.30974613 6.4205573 -3.30974613 6.4205573 -3 1 C-2.01 0.67 -1.02 0.34 0 0 Z " fill="#1C1870" transform="translate(173,127)"/>
<path d="M0 0 C2.64 0.33 5.28 0.66 8 1 C7.01 1.495 7.01 1.495 6 2 C6.36288202 6.9593876 7.90068371 9.63965273 10.94140625 13.38671875 C12 15 12 15 12 18 C13.32 18.33 14.64 18.66 16 19 C13.86328125 19.48828125 13.86328125 19.48828125 11 19 C8.67396527 16.66137935 6.96821625 13.95248398 5.1875 11.1875 C4.68541016 10.44951172 4.18332031 9.71152344 3.66601562 8.95117188 C0 3.439679 0 3.439679 0 0 Z " fill="#060624" transform="translate(30,66)"/>
<path d="M0 0 C2.64 0 5.28 0 8 0 C7.690625 0.86625 7.38125 1.7325 7.0625 2.625 C6.07508101 5.76150738 5.46418941 8.75067413 5 12 C5.78375 12.268125 6.5675 12.53625 7.375 12.8125 C10 14 10 14 12 17 C9.33333333 17 6.66666667 17 4 17 C1.85300031 13.55824478 1.90143205 11.2279708 2.375 7.25 C2.48585937 6.26515625 2.59671875 5.2803125 2.7109375 4.265625 C2.80632812 3.51796875 2.90171875 2.7703125 3 2 C2.01 1.34 1.02 0.68 0 0 Z " fill="#1112AA" transform="translate(179,24)"/>
<path d="M0 0 C3.3183434 1.48153828 5.80041356 3.40199901 8.5625 5.75 C13.68583044 9.93418045 19.10198252 13.0397783 25 16 C21.46231651 17.17922783 19.78918019 16.58008907 16.3984375 15.21875 C10.49814957 12.22055809 3.52948072 8.37695403 1 2 C0.67 1.34 0.34 0.68 0 0 Z " fill="#181861" transform="translate(83,164)"/>
<path d="M0 0 C2.7972908 2.06756277 3.02692273 3.14440371 3.6875 6.6875 C3.790625 7.780625 3.89375 8.87375 4 10 C3.01 10 2.02 10 1 10 C0.34 11.65 -0.32 13.3 -1 15 C-1.33 15 -1.66 15 -2 15 C-2.99 11.04 -3.98 7.08 -5 3 C-3.35 2.01 -1.7 1.02 0 0 Z " fill="#1011B4" transform="translate(215,78)"/>
<path d="M0 0 C2 2 2 2 2.046875 3.953125 C1.4566172 8.51985639 0.66464929 12.67191184 -1 17 C0.32 17.33 1.64 17.66 3 18 C3 18.33 3 18.66 3 19 C0.69 19 -1.62 19 -4 19 C-5 17 -5 17 -4.51171875 15.1171875 C-4.23972656 14.37726563 -3.96773437 13.63734375 -3.6875 12.875 C-2.18460813 8.62140237 -1.03744116 4.38917413 0 0 Z " fill="#0F105D" transform="translate(144,114)"/>
<path d="M0 0 C0.66 0.66 1.32 1.32 2 2 C1.34 2 0.68 2 0 2 C-0.33 2.99 -0.66 3.98 -1 5 C-0.5359375 5.928125 -0.5359375 5.928125 -0.0625 6.875 C1.20298687 9.40597375 1.15515144 11.20727405 1 14 C-0.32 14.33 -1.64 14.66 -3 15 C-3 14.34 -3 13.68 -3 13 C-3.66 13 -4.32 13 -5 13 C-5.33 12.01 -5.66 11.02 -6 10 C-4.68 10 -3.36 10 -2 10 C-2 9.01 -2 8.02 -2 7 C-2.33 7.66 -2.66 8.32 -3 9 C-3.66 9 -4.32 9 -5 9 C-4.67 7.68 -4.34 6.36 -4 5 C-4.66 5 -5.32 5 -6 5 C-5.625 3.0625 -5.625 3.0625 -5 1 C-3 0 -3 0 0 0 Z " fill="#04044B" transform="translate(142,21)"/>
<path d="M0 0 C2.4178712 -0.10826289 4.83087556 -0.18739789 7.25 -0.25 C8.27287109 -0.30027344 8.27287109 -0.30027344 9.31640625 -0.3515625 C12.77529071 -0.41872531 14.61825697 -0.29345718 17.3984375 1.84375 C19.44827768 4.60353483 20.34711116 6.60497804 21 10 C20.57577785 12.79784609 19.84347925 15.2821224 19 18 C18.67 18 18.34 18 18 18 C17.95101562 17.32453125 17.90203125 16.6490625 17.8515625 15.953125 C17.77679688 15.06109375 17.70203125 14.1690625 17.625 13.25 C17.55539063 12.36828125 17.48578125 11.4865625 17.4140625 10.578125 C16.98751237 7.92224685 16.50094628 6.22721061 15 4 C11.90146635 1.87489948 8.94396796 1.63885485 5.25 1.375 C3.77273437 1.26285156 3.77273437 1.26285156 2.265625 1.1484375 C1.51796875 1.09945312 0.7703125 1.05046875 0 1 C0 0.67 0 0.34 0 0 Z " fill="#1C1D77" transform="translate(153,85)"/>
<path d="M0 0 C3.70986572 -0.28783441 7.29998705 -0.45251957 11 0 C13.6875 2.5 13.6875 2.5 15 5 C11.125 3.125 11.125 3.125 10 2 C7.67182036 1.63239269 5.3381615 1.29758419 3 1 C3 1.66 3 2.32 3 3 C4.65 3.33 6.3 3.66 8 4 C8.33 5.65 8.66 7.3 9 9 C9.66 9 10.32 9 11 9 C11 9.66 11 10.32 11 11 C11.66 11.33 12.32 11.66 13 12 C10 12 10 12 8.39453125 10.7578125 C7.87246094 10.21898437 7.35039063 9.68015625 6.8125 9.125 C6.28269531 8.59132812 5.75289063 8.05765625 5.20703125 7.5078125 C4 6 4 6 4 4 C2.68 3.34 1.36 2.68 0 2 C0 1.34 0 0.68 0 0 Z " fill="#15159B" transform="translate(72,166)"/>
<path d="M0 0 C1.95137774 3.90275548 -0.36459004 8.96516561 -1.3125 13.0625 C-1.53873047 14.09439453 -1.76496094 15.12628906 -1.99804688 16.18945312 C-2.22169922 17.16978516 -2.44535156 18.15011719 -2.67578125 19.16015625 C-2.88114502 20.06386963 -3.08650879 20.96758301 -3.2980957 21.89868164 C-4 24 -4 24 -6 25 C-5.91621094 24.32453125 -5.83242187 23.6490625 -5.74609375 22.953125 C-5.64425781 22.06109375 -5.54242188 21.1690625 -5.4375 20.25 C-5.33308594 19.36828125 -5.22867188 18.4865625 -5.12109375 17.578125 C-5.00514472 15.10953281 -5.36770652 13.35914543 -6 11 C-5.67 10.67 -5.34 10.34 -5 10 C-4.76807135 8.48530552 -4.58784762 6.96245438 -4.4375 5.4375 C-4.35371094 4.61121094 -4.26992187 3.78492187 -4.18359375 2.93359375 C-4.12300781 2.29550781 -4.06242187 1.65742187 -4 1 C-3.34 1.99 -2.68 2.98 -2 4 C-1.34 2.68 -0.68 1.36 0 0 Z " fill="#1A183E" transform="translate(78,94)"/>
<path d="M0 0 C0 0.99 0 1.98 0 3 C-13.6332574 7.96127563 -13.6332574 7.96127563 -20 5 C-20 4.67 -20 4.34 -20 4 C-19.28714844 3.87882813 -18.57429688 3.75765625 -17.83984375 3.6328125 C-12.17444327 2.64155804 -5.67295443 0 0 0 Z " fill="#0A0836" transform="translate(110,151)"/>
<path d="M0 0 C2 3 2 3 1.64453125 6.109375 C-1.13438735 18.2687747 -1.13438735 18.2687747 -4 24 C-4.96998805 20.92186992 -4.98169275 18.87526453 -4.2578125 15.7421875 C-4.07863281 14.95199219 -3.89945313 14.16179687 -3.71484375 13.34765625 C-3.52019531 12.53167969 -3.32554688 11.71570313 -3.125 10.875 C-2.84462891 9.63943359 -2.84462891 9.63943359 -2.55859375 8.37890625 C-1.16071429 2.32142857 -1.16071429 2.32142857 0 0 Z " fill="#0D0D2E" transform="translate(52,109)"/>
<path d="M0 0 C0.99 0 1.98 0 3 0 C3 0.99 3 1.98 3 3 C3.66 3.33 4.32 3.66 5 4 C5.08706892 7.27066566 5.14041241 10.54103365 5.1875 13.8125 C5.22520508 15.2056543 5.22520508 15.2056543 5.26367188 16.62695312 C5.27333984 17.51962891 5.28300781 18.41230469 5.29296875 19.33203125 C5.3086792 20.15421143 5.32438965 20.9763916 5.34057617 21.82348633 C4.92566921 24.47502434 4.04470249 25.33263592 2 27 C2.16371094 26.16210938 2.32742187 25.32421875 2.49609375 24.4609375 C3.02987283 20.79482693 3.09743025 17.32760615 3.0625 13.625 C3.04896484 11.75714844 3.04896484 11.75714844 3.03515625 9.8515625 C3.02355469 8.91054687 3.01195313 7.96953125 3 7 C2.34 7 1.68 7 1 7 C0.67 4.69 0.34 2.38 0 0 Z " fill="#010130" transform="translate(115,92)"/>
<path d="M0 0 C4.48721445 3.81413229 7.03495803 8.67630474 7.75 14.4375 C7.87375 16.2009375 7.87375 16.2009375 8 18 C5.61161055 14.95696164 3.64107578 11.81114246 1.75 8.4375 C0.93789062 7.01244141 0.93789062 7.01244141 0.109375 5.55859375 C-1 3 -1 3 0 0 Z " fill="#171667" transform="translate(149,133)"/>
<path d="M0 0 C2.85076991 2.85076991 3.75717425 6.33022057 5.0625 10.0625 C5.33271973 10.82876709 5.60293945 11.59503418 5.88134766 12.38452148 C7.67057708 17.62282103 8.79783555 22.44047757 9 28 C8.34 27.67 7.68 27.34 7 27 C6.7955497 25.36439757 6.59498697 23.72821537 6.4140625 22.08984375 C5.93745597 19.68432968 5.063387 17.7696018 4 15.5625 C2.52826392 12.47608945 1.70398118 9.90556447 1.375 6.5 C1.189375 4.7675 1.189375 4.7675 1 3 C0.34 2.67 -0.32 2.34 -1 2 C-0.67 1.34 -0.34 0.68 0 0 Z " fill="#1615A1" transform="translate(214,69)"/>
<path d="M0 0 C2.31 0.33 4.62 0.66 7 1 C6.67 2.65 6.34 4.3 6 6 C12.6 6.33 19.2 6.66 26 7 C26 7.33 26 7.66 26 8 C22.79291312 8.23389694 19.58802405 8.37487528 16.375 8.5 C15.47136719 8.56703125 14.56773437 8.6340625 13.63671875 8.703125 C6.98186274 8.89742737 6.98186274 8.89742737 4.01269531 6.18359375 C2.51113203 4.18150937 1.20027935 2.19401913 0 0 Z " fill="#1919AD" transform="translate(137,75)"/>
<path d="M0 0 C0.33 0.99 0.66 1.98 1 3 C-0.24372189 3.98712878 -1.49527218 4.96439905 -2.75 5.9375 C-3.44609375 6.48277344 -4.1421875 7.02804688 -4.859375 7.58984375 C-6.96092128 8.97425654 -8.54321799 9.56286987 -11 10 C-10.67 8.02 -10.34 6.04 -10 4 C-9.278125 4.0825 -8.55625 4.165 -7.8125 4.25 C-4.16451206 3.92573441 -2.65431702 2.42680413 0 0 Z " fill="#1B1C66" transform="translate(134,30)"/>
<path d="M0 0 C7.59 0.33 15.18 0.66 23 1 C23 1.66 23 2.32 23 3 C14.66473215 4.36186463 8.04441651 3.48492447 0 1 C0 0.67 0 0.34 0 0 Z " fill="#12149F" transform="translate(125,188)"/>
<path d="M0 0 C0.66 0 1.32 0 2 0 C5 5.75 5 5.75 5 8 C5.66 8 6.32 8 7 8 C8.99785435 12.1205746 9.17835515 15.45194365 9 20 C5.79655957 18.39827979 5.62337746 15.55163377 4.5 12.25 C3.08471153 8.1249519 1.66229882 4.03261381 0 0 Z " fill="#141469" transform="translate(203,72)"/>
<path d="M0 0 C0 0.99 0 1.98 0 3 C-0.66 3 -1.32 3 -2 3 C-2.28875 3.598125 -2.5775 4.19625 -2.875 4.8125 C-4 7 -4 7 -6 10 C-2.7 10.33 0.6 10.66 4 11 C4 11.33 4 11.66 4 12 C-0.62 12 -5.24 12 -10 12 C-7.29076328 6.68572797 -4.77135213 3.57851409 0 0 Z " fill="#14165F" transform="translate(74,48)"/>
<path d="M0 0 C0.71285156 0.00644531 1.42570312 0.01289062 2.16015625 0.01953125 C6.93325869 0.08933896 11.54545452 0.40340909 16.25 1.1875 C16.25 1.5175 16.25 1.8475 16.25 2.1875 C12.62 2.1875 8.99 2.1875 5.25 2.1875 C4.92 3.1775 4.59 4.1675 4.25 5.1875 C4.25 4.1975 4.25 3.2075 4.25 2.1875 C-1.03 2.1875 -6.31 2.1875 -11.75 2.1875 C-7.51003215 0.06751608 -4.57927774 -0.08464469 0 0 Z " fill="#050544" transform="translate(70.75,80.8125)"/>
<path d="M0 0 C3.34820898 1.46625856 5.69266359 3.33658447 8.3125 5.875 C9.38951172 6.89207031 9.38951172 6.89207031 10.48828125 7.9296875 C12 10 12 10 11.73046875 12.2578125 C11.36888672 13.12019531 11.36888672 13.12019531 11 14 C10.18595703 13.04287109 10.18595703 13.04287109 9.35546875 12.06640625 C8.64003906 11.24011719 7.92460937 10.41382813 7.1875 9.5625 C6.47980469 8.73878906 5.77210938 7.91507813 5.04296875 7.06640625 C3.08890314 4.77835241 3.08890314 4.77835241 0 4 C0 2.68 0 1.36 0 0 Z " fill="#0F0F6F" transform="translate(192,39)"/>
<path d="M0 0 C2.61527381 2.36620011 4.26440562 4.942048 6 8 C7.32 6.02 8.64 4.04 10 2 C11 4 11 4 10.44140625 6.1640625 C10.15136719 6.97617187 9.86132812 7.78828125 9.5625 8.625 C9.27503906 9.44226562 8.98757812 10.25953125 8.69140625 11.1015625 C8.46324219 11.72804688 8.23507813 12.35453125 8 13 C7.01 13 6.02 13 5 13 C3.11304374 8.71146306 1.41807378 4.47238653 0 0 Z " fill="#080763" transform="translate(166,44)"/>
<path d="M0 0 C-0.27714844 0.59167969 -0.55429687 1.18335937 -0.83984375 1.79296875 C-2.71693314 5.88782923 -4.16717698 9.55827724 -5 14 C-5.99 14.495 -5.99 14.495 -7 15 C-6.91621094 14.40832031 -6.83242188 13.81664063 -6.74609375 13.20703125 C-6.19110576 8.90060543 -5.76773348 5.24447356 -7 1 C-3.375 -1.125 -3.375 -1.125 0 0 Z " fill="#030235" transform="translate(59,106)"/>
<path d="M0 0 C2 2 2 2 2 5 C4.97 5.495 4.97 5.495 8 6 C7.67 6.99 7.34 7.98 7 9 C4.69 9.33 2.38 9.66 0 10 C0 6.7 0 3.4 0 0 Z " fill="#07075D" transform="translate(136,13)"/>
<path d="M0 0 C0.66 0 1.32 0 2 0 C2.22254324 3.89450661 1.50204483 6.43264353 0 10 C-0.3373846 13.12498166 -0.3373846 13.12498166 2 15.1875 C2.66 15.785625 3.32 16.38375 4 17 C0.89448334 17 -0.35261084 16.4606285 -3 15 C-2 10 -1 5 0 0 Z " fill="#131390" transform="translate(146,116)"/>
<path d="M0 0 C1.32 0 2.64 0 4 0 C2.63055898 2.94956528 1.12169591 5.52468811 -1 8 C-1.66 8 -2.32 8 -3 8 C-3.28875 8.639375 -3.5775 9.27875 -3.875 9.9375 C-5 12 -5 12 -7 13 C-6.75 10.625 -6.75 10.625 -6 8 C-5.360625 7.690625 -4.72125 7.38125 -4.0625 7.0625 C-1.64493547 6.10213186 -1.64493547 6.10213186 -0.75 2.875 C-0.5025 1.92625 -0.255 0.9775 0 0 Z " fill="#1413A0" transform="translate(204,160)"/>
<path d="M0 0 C0.66 0.33 1.32 0.66 2 1 C0.58833114 1.98635837 -0.82956184 2.96381255 -2.25 3.9375 C-3.43335938 4.75541016 -3.43335938 4.75541016 -4.640625 5.58984375 C-6.87284887 6.92400405 -8.41972691 7.74943629 -11 8 C-11.99 7.34 -12.98 6.68 -14 6 C-11.71220962 4.96959833 -9.42048864 3.95047982 -7.125 2.9375 C-6.47402344 2.64294922 -5.82304687 2.34839844 -5.15234375 2.04492188 C-3.45989459 1.30338487 -1.73131425 0.64560999 0 0 Z " fill="#121663" transform="translate(171,178)"/>
<path d="M0 0 C-0.66 1.32 -1.32 2.64 -2 4 C-3.65 4 -5.3 4 -7 4 C-7 3.34 -7 2.68 -7 2 C-10.3 2 -13.6 2 -17 2 C-17 1.67 -17 1.34 -17 1 C-14.9168207 0.83141902 -12.83344956 0.66520745 -10.75 0.5 C-9.58984375 0.4071875 -8.4296875 0.314375 -7.234375 0.21875 C-4.82731342 0.05595356 -2.41256049 0 0 0 Z " fill="#08064F" transform="translate(185,155)"/>
<path d="M0 0 C0.66 0.33 1.32 0.66 2 1 C-1.73572939 5.82029598 -1.73572939 5.82029598 -5.3359375 6.33203125 C-7.5758033 6.31436669 -9.77120799 6.21850902 -12 6 C-9.48617788 4.32411859 -7.17052712 3.05969689 -4.4375 1.8125 C-3.65246094 1.44769531 -2.86742188 1.08289063 -2.05859375 0.70703125 C-1.37925781 0.47371094 -0.69992188 0.24039063 0 0 Z " fill="#16133F" transform="translate(104,133)"/>
<path d="M0 0 C4 1 4 1 5.375 3.1875 C6.1611131 6.72500893 5.37956016 8.70438407 4 12 C3.67 12 3.34 12 3 12 C2.01 8.04 1.02 4.08 0 0 Z " fill="#11129F" transform="translate(210,81)"/>
<path d="M0 0 C3.75345656 0.71971619 6.86091969 2.33112202 10.25 4.0625 C11.32765625 4.61035156 12.4053125 5.15820312 13.515625 5.72265625 C14.74539062 6.35494141 14.74539062 6.35494141 16 7 C13 8 13 8 10.1171875 6.85546875 C8.51230469 6.02982422 8.51230469 6.02982422 6.875 5.1875 C5.26238281 4.37345703 5.26238281 4.37345703 3.6171875 3.54296875 C1 2 1 2 0 0 Z " fill="#121395" transform="translate(94,185)"/>
<path d="M0 0 C2.43357796 2.43357796 2.41100776 3.51498869 2.75 6.875 C2.84796875 7.73867187 2.9459375 8.60234375 3.046875 9.4921875 C2.99583479 12.22283899 2.39884193 13.68653065 1 16 C-0.16350183 12.5094945 0 9.66796817 0 6 C-0.32635698 4.33195323 -0.65725594 2.66475686 -1 1 C-0.67 0.67 -0.34 0.34 0 0 Z " fill="#1414A9" transform="translate(173,88)"/>
<path d="M0 0 C1.65 0 3.3 0 5 0 C5.33 1.32 5.66 2.64 6 4 C4.35 4.66 2.7 5.32 1 6 C0.4465236 3.92446352 0 2.15634036 0 0 Z " fill="#1519BA" transform="translate(86,174)"/>
<path d="M0 0 C0.66 0.99 1.32 1.98 2 3 C0.65289578 7.04131267 -1.38428334 7.90288434 -5 10 C-5.99 10 -6.98 10 -8 10 C-7.59007813 9.52949219 -7.18015625 9.05898437 -6.7578125 8.57421875 C-6.21898438 7.95160156 -5.68015625 7.32898438 -5.125 6.6875 C-4.59132813 6.07261719 -4.05765625 5.45773438 -3.5078125 4.82421875 C-1.8359553 2.86501788 -1.8359553 2.86501788 0 0 Z " fill="#151538" transform="translate(114,122)"/>
<path d="M0 0 C0.66 0 1.32 0 2 0 C2.66 2.31 3.32 4.62 4 7 C0.75791433 6.64950425 -0.61527704 6.43778819 -2.8125 3.9375 C-3.4003125 2.9784375 -3.4003125 2.9784375 -4 2 C-2.68 2.33 -1.36 2.66 0 3 C0 2.01 0 1.02 0 0 Z " fill="#131129" transform="translate(144,33)"/>
<path d="M0 0 C0.66 0.33 1.32 0.66 2 1 C-3.0940919 7.86214442 -3.0940919 7.86214442 -6.875 8.4375 C-7.57625 8.293125 -8.2775 8.14875 -9 8 C-7.88625 7.13375 -7.88625 7.13375 -6.75 6.25 C-4.33912357 4.27746474 -2.15957299 2.23955718 0 0 Z " fill="#1A1B66" transform="translate(187,167)"/>
<path d="M0 0 C-1.50223584 4.20626034 -4.28550034 5.73900021 -8 8 C-8 7.01 -8 6.02 -8 5 C-7.01 4.67 -6.02 4.34 -5 4 C-5.33 3.01 -5.66 2.02 -6 1 C-3.92446352 0.4465236 -2.15634036 0 0 0 Z " fill="#05041E" transform="translate(153,17)"/>
<path d="M0 0 C0.66 0.99 1.32 1.98 2 3 C1.01 4.98 0.02 6.96 -1 9 C-3.97 8.505 -3.97 8.505 -7 8 C-7 7.67 -7 7.34 -7 7 C-5.35 6.67 -3.7 6.34 -2 6 C-1.34 4.02 -0.68 2.04 0 0 Z " fill="#1C1F6B" transform="translate(132,10)"/>
<path d="M0 0 C1.41623216 -0.05447047 2.83308191 -0.09300508 4.25 -0.125 C5.03890625 -0.14820312 5.8278125 -0.17140625 6.640625 -0.1953125 C9 0 9 0 13 2 C6.565 2.495 6.565 2.495 0 3 C0 2.01 0 1.02 0 0 Z " fill="#050381" transform="translate(152,83)"/>
<path d="M0 0 C0.8971875 0.309375 0.8971875 0.309375 1.8125 0.625 C0.1875 2.625 0.1875 2.625 -2.1875 4.625 C-5.4375 4.875 -5.4375 4.875 -8.1875 4.625 C-3.2421875 -0.55580357 -3.2421875 -0.55580357 0 0 Z " fill="#3038A2" transform="translate(80.1875,54.375)"/>
<path d="M0 0 C2.64 0 5.28 0 8 0 C7.39816251 2.02045442 6.72693904 4.02111039 6 6 C5.01 6.495 5.01 6.495 4 7 C3.896875 6.21625 3.79375 5.4325 3.6875 4.625 C3.22404978 1.66954819 3.22404978 1.66954819 0 0 Z " fill="#13129A" transform="translate(179,24)"/>
<path d="M0 0 C6.0546875 -0.1953125 6.0546875 -0.1953125 8 0 C8.66 0.66 9.32 1.32 10 2 C8.8553125 2.2165625 8.8553125 2.2165625 7.6875 2.4375 C4.91827092 2.9632594 4.91827092 2.9632594 2 4 C1.34 2.68 0.68 1.36 0 0 Z " fill="#0E0C47" transform="translate(117,17)"/>
<path d="M0 0 C0.33 0.99 0.66 1.98 1 3 C0.34 3 -0.32 3 -1 3 C-1.28875 3.763125 -1.5775 4.52625 -1.875 5.3125 C-3 8 -3 8 -5 11 C-5.99 10.67 -6.98 10.34 -8 10 C-5.36 6.7 -2.72 3.4 0 0 Z " fill="#16159C" transform="translate(202,154)"/>
<path d="M0 0 C1.98 0 3.96 0 6 0 C6.33 1.98 6.66 3.96 7 6 C3.535 4.02 3.535 4.02 0 2 C0 1.34 0 0.68 0 0 Z " fill="#080841" transform="translate(125,67)"/>
<path d="M0 0 C0.66 0.33 1.32 0.66 2 1 C1.25 2.9375 1.25 2.9375 0 5 C-2 5.6875 -2 5.6875 -4 6 C-4.99 6.495 -4.99 6.495 -6 7 C-5.8125 5.1875 -5.8125 5.1875 -5 3 C-2.5625 1.1875 -2.5625 1.1875 0 0 Z " fill="#121131" transform="translate(59,101)"/>
<path d="M0 0 C2.31 0.33 4.62 0.66 7 1 C6.67 2.65 6.34 4.3 6 6 C6.66 6.33 7.32 6.66 8 7 C7.01 7 6.02 7 5 7 C3.61328125 5.46875 3.61328125 5.46875 2.3125 3.5 C1.87550781 2.8503125 1.43851563 2.200625 0.98828125 1.53125 C0.49908203 0.77328125 0.49908203 0.77328125 0 0 Z " fill="#1412A8" transform="translate(137,75)"/>
<path d="M0 0 C6.4 0.49230769 6.4 0.49230769 9.4375 3.0625 C10.2109375 4.0215625 10.2109375 4.0215625 11 5 C10.34 5.66 9.68 6.32 9 7 C8.2575 6.401875 7.515 5.80375 6.75 5.1875 C4.52582236 3.41826778 2.28337765 1.69139085 0 0 Z " fill="#090B68" transform="translate(177,71)"/>
<path d="M0 0 C2.64 0 5.28 0 8 0 C7.67 0.99 7.34 1.98 7 3 C6.01 3.33 5.02 3.66 4 4 C2.68 2.68 1.36 1.36 0 0 Z " fill="#04053B" transform="translate(66,140)"/>
<path d="M0 0 C2.31 0 4.62 0 7 0 C4.31158141 2.25245881 2.35358125 3.88213958 -1 5 C-0.67 3.35 -0.34 1.7 0 0 Z " fill="#3036A5" transform="translate(94,39)"/>
<path d="M0 0 C3.36720387 1.39332574 4.9859524 2.9789286 7 6 C4.03 5.505 4.03 5.505 1 5 C0.67 3.35 0.34 1.7 0 0 Z " fill="#16177C" transform="translate(192,39)"/>
<path d="M0 0 C2.78211944 0.37596209 4.5879284 0.67318459 6.8125 2.4375 C8 4 8 4 8 6 C4.63408134 4.55746343 2.48952921 2.66735273 0 0 Z " fill="#0A0B60" transform="translate(185,35)"/>
<path d="M0 0 C2.15377564 2.62198774 3.40072174 4.64404172 4 8 C2.68 7.67 1.36 7.34 0 7 C0 4.69 0 2.38 0 0 Z " fill="#1D1AA0" transform="translate(177,148)"/>
<path d="M0 0 C0.66 0.33 1.32 0.66 2 1 C0.38405168 3.04119788 -1.2856382 5.04072937 -3 7 C-3.66 7 -4.32 7 -5 7 C-4.6875 5.0625 -4.6875 5.0625 -4 3 C-3.01 2.67 -2.02 2.34 -1 2 C-0.67 1.34 -0.34 0.68 0 0 Z " fill="#151371" transform="translate(188,114)"/>
<path d="M0 0 C3.3 0 6.6 0 10 0 C8.02 0.99 8.02 0.99 6 2 C5.34 2.66 4.68 3.32 4 4 C2.68 2.68 1.36 1.36 0 0 Z " fill="#3538A3" transform="translate(121,19)"/>
<path d="M0 0 C0.33 0 0.66 0 1 0 C1 3.63 1 7.26 1 11 C0.67 10.01 0.34 9.02 0 8 C-0.66 8 -1.32 8 -2 8 C-1.34 5.36 -0.68 2.72 0 0 Z " fill="#3839A1" transform="translate(134,10)"/>
<path d="M0 0 C1.32 0.33 2.64 0.66 4 1 C1.03 3.475 1.03 3.475 -2 6 C-2 3 -2 3 0 0 Z " fill="#15179D" transform="translate(191,175)"/>
<path d="M0 0 C1.98 0 3.96 0 6 0 C4.68 1.65 3.36 3.3 2 5 C1.34 4.67 0.68 4.34 0 4 C0 2.68 0 1.36 0 0 Z " fill="#01033D" transform="translate(114,144)"/>
<path d="M0 0 C2 1 2 1 3.1875 3.375 C4 6 4 6 3 9 C0.90250005 6.64031256 0.03094296 5.45383006 -0.1875 2.25 C-0.125625 1.5075 -0.06375 0.765 0 0 Z " fill="#010135" transform="translate(134,86)"/>
<path d="M0 0 C0.99 0 1.98 0 3 0 C3 0.99 3 1.98 3 3 C3.66 3 4.32 3 5 3 C5 3.99 5 4.98 5 6 C3.68 5.67 2.36 5.34 1 5 C0.67 3.35 0.34 1.7 0 0 Z " fill="#020138" transform="translate(124,75)"/>
<path d="M0 0 C4.8 3.44615385 4.8 3.44615385 5.8125 6.25 C5.874375 6.8275 5.93625 7.405 6 8 C5.34 8 4.68 8 4 8 C0 3.64705882 0 3.64705882 0 0 Z " fill="#0C125E" transform="translate(132,71)"/>
<path d="M0 0 C1.65 0 3.3 0 5 0 C4.34 1.98 3.68 3.96 3 6 C0.8614515 3.8614515 0.57344937 2.86724686 0 0 Z " fill="#100F46" transform="translate(186,21)"/>
</svg>
