<?xml version="1.0" encoding="UTF-8"?>
<svg version="1.1" xmlns="http://www.w3.org/2000/svg" width="251" height="210">
<path d="M0 0 C0.67991501 -0.0049649 1.35983002 -0.00992981 2.06034851 -0.01504517 C4.32515463 -0.02972399 6.5898903 -0.03648442 8.85473633 -0.04199219 C10.43402609 -0.04774672 12.01331585 -0.05350441 13.59260559 -0.05926514 C16.91753464 -0.06979658 20.24243941 -0.07562264 23.56738281 -0.07910156 C27.79117869 -0.08453746 32.01464415 -0.10844919 36.23833752 -0.13707352 C39.50984053 -0.15588705 42.78126771 -0.16091571 46.05282021 -0.16243744 C47.60706669 -0.1654315 49.16131292 -0.17334764 50.7155056 -0.18662262 C65.86531635 -0.30659564 80.25681824 0.70713887 91.97192383 11.42285156 C100.98087581 20.754075 103.90675051 30.71725153 103.77661133 43.48535156 C102.55161903 59.72081287 95.6630967 71.69879169 83.49926758 82.16113281 C69.22047283 93.10507747 52.65550413 92.81437827 35.48168945 92.94506836 C31.71623153 92.97388564 27.95184985 93.02906136 24.18676758 93.08886719 C21.79616225 93.12096652 19.40553696 93.15161922 17.01489258 93.18066406 C15.88794983 93.19515091 14.76100708 93.20963776 13.59991455 93.2245636 C12.56413269 93.23174911 11.52835083 93.23893463 10.46118164 93.24633789 C9.54854553 93.25425858 8.63590942 93.26217926 7.69561768 93.27033997 C5.49926758 93.16113281 5.49926758 93.16113281 3.49926758 92.16113281 C4.0753073 86.09041624 5.01618781 80.34491789 6.49536133 74.43457031 C6.68896744 73.64265289 6.88257355 72.85073547 7.08204651 72.03482056 C7.69500629 69.53392493 8.31590164 67.03507587 8.93676758 64.53613281 C9.34936654 62.85396116 9.76147983 61.17167029 10.1730957 59.48925781 C10.57174933 57.86675506 10.97082356 56.24435558 11.37036133 54.62207031 C11.55376572 53.87710297 11.7371701 53.13213562 11.9261322 52.36459351 C12.27557267 50.95900945 12.62984561 49.55461535 12.98962402 48.15164185 C13.4892288 46.20034115 13.96798247 44.24373968 14.44628906 42.28710938 C15.86563273 38.07350486 18.42898026 36.62801352 22.12426758 34.53613281 C22.75510254 34.15787354 23.3859375 33.77961426 24.03588867 33.38989258 C25.28469701 32.64166616 26.53802721 31.90092598 27.79614258 31.16845703 C29.95851271 29.88950933 32.03614877 28.49466679 34.12426758 27.09863281 C37.49926758 25.16113281 37.49926758 25.16113281 41.49926758 25.16113281 C40.85021264 31.11927771 39.77532515 36.85438775 38.43286133 42.69238281 C38.23451187 43.56890503 38.03616241 44.44542725 37.83180237 45.34851074 C37.20372643 48.12021734 36.5703381 50.89067762 35.93676758 53.66113281 C35.50737807 55.55167766 35.07833814 57.44230194 34.6496582 59.33300781 C33.6035673 63.94331102 32.55271358 68.55250492 31.49926758 73.16113281 C34.95848206 73.07898668 38.41609263 72.96627291 41.87426758 72.84863281 C42.83977539 72.82607422 43.8052832 72.80351562 44.80004883 72.78027344 C56.79408834 72.33754044 65.1443754 69.33950021 73.74926758 60.97363281 C78.99310468 52.54603746 81.04255679 43.64799868 79.02661133 33.86816406 C77.40804395 28.70231727 74.94360721 26.18328376 70.49926758 23.16113281 C66.63295026 21.27685986 63.67941325 20.95144471 59.39892578 21.08032227 C57.58597771 21.12314079 57.58597771 21.12314079 55.73640442 21.16682434 C54.43740707 21.20232895 53.13840973 21.23783356 51.80004883 21.27441406 C49.03646933 21.31387697 46.27277818 21.33742523 43.5090332 21.36230469 C39.1601717 21.40389441 34.81505167 21.46564292 30.46826172 21.61010742 C6.95504965 22.35877499 6.95504965 22.35877499 1.18572998 18.68988037 C-3.65237958 13.90705798 -6.18892024 7.78693802 -7.50073242 1.16113281 C-5.63353754 -0.70606207 -2.49127066 0.01377779 0 0 Z " fill="#1856C8" transform="translate(24.500732421875,69.8388671875)"/>
<path d="M0 0 C-1.78888889 5.62222222 -1.78888889 5.62222222 -3.1875 8.125 C-4.14852467 9.94545246 -4.14852467 9.94545246 -3.86328125 11.859375 C-2.62267724 14.93562386 -0.63482822 16.14155987 2 18.125 C20.72966904 33.00212392 32.01375716 54.64711862 35.08862305 78.25170898 C37.66339409 101.27538628 32.46418715 125.14434994 17.875 143.5625 C16.59332661 145.05033404 15.3026088 146.53046024 14 148 C13.51015625 148.62003906 13.0203125 149.24007812 12.515625 149.87890625 C0.49876253 164.9674948 -20.75392901 176.63539719 -40 179 C-63.34653347 181.47651179 -87.02971163 177.35694421 -105.86669922 162.53076172 C-112.13451344 157.23655583 -117.89037477 151.42352885 -123 145 C-122.505 144.01 -122.505 144.01 -122 143 C-108.00001948 141.92961314 -108.00001948 141.92961314 -103.61328125 144.27734375 C-102.38106217 145.4561043 -101.18787974 146.67667195 -100.03125 147.9296875 C-88.25976246 159.9275498 -70.05277014 164.83064472 -53.75 165.3125 C-39.10078207 164.98075371 -27.60092248 161.25044413 -15 154 C-14.13632813 153.5153125 -13.27265625 153.030625 -12.3828125 152.53125 C-1.03553737 145.58558693 6.77399089 135.55853627 13 124 C13.49371094 123.08347656 13.98742187 122.16695313 14.49609375 121.22265625 C22.63033002 104.78522331 23.71451332 84.38814029 18.390625 66.87890625 C12.90232601 50.76214766 3.49277259 36.47166358 -10 26 C-10.66 26 -11.32 26 -12 26 C-13.65 29.3 -15.3 32.6 -17 36 C-17.99 36 -18.98 36 -20 36 C-22.12709071 32.39405663 -24.24466488 28.78274425 -26.35375977 25.16625977 C-27.07189844 23.93786893 -27.79257349 22.71095712 -28.51586914 21.4855957 C-29.55772574 19.71953045 -30.59021228 17.94826982 -31.62109375 16.17578125 C-32.2442749 15.11270752 -32.86745605 14.04963379 -33.50952148 12.9543457 C-34.8899791 10.21807746 -35.58780963 8.01703842 -36 5 C-29.12800486 3.14565211 -22.21196116 1.94048594 -15.1875 0.8125 C-13.49077148 0.52729492 -13.49077148 0.52729492 -11.75976562 0.23632812 C-10.67759766 0.06166016 -9.59542969 -0.11300781 -8.48046875 -0.29296875 C-7.49973389 -0.4530542 -6.51899902 -0.61313965 -5.50854492 -0.77807617 C-3 -1 -3 -1 0 0 Z " fill="#417DD9" transform="translate(178,25)"/>
<path d="M0 0 C5.04962778 -0.0499887 10.09910685 -0.08599384 15.14892578 -0.10986328 C16.86151646 -0.11982955 18.57409054 -0.13340747 20.28662109 -0.15087891 C50.4018037 -0.45009463 50.4018037 -0.45009463 60.8125 9.375 C67.38440645 16.3810415 68.32446444 23.66625536 68.2109375 32.94140625 C67.54816748 42.55157155 62.62007197 50.99528949 55.5 57.375 C52.1573688 60.04317568 48.41941531 63 44 63 C45.22655025 65.48049244 46.45569475 67.95961724 47.6875 70.4375 C48.05037109 71.1687207 48.41324219 71.89994141 48.78710938 72.65332031 C51.09354353 77.27233365 53.50387019 81.78926019 56.1875 86.203125 C57 88 57 88 57 92 C49.08 92 41.16 92 33 92 C30.99504706 88.21087763 28.9958499 84.41891288 27 80.625 C26.42765625 79.54476562 25.8553125 78.46453125 25.265625 77.3515625 C24.72421875 76.3203125 24.1828125 75.2890625 23.625 74.2265625 C23.12226563 73.27346191 22.61953125 72.32036133 22.1015625 71.33837891 C21 69 21 69 21 67 C18.69 67 16.38 67 14 67 C12.60964629 62.82893888 14.09769194 59.81793141 15.4375 55.8125 C15.68048828 55.06291016 15.92347656 54.31332031 16.17382812 53.54101562 C16.77465056 51.69142499 17.38629678 49.84535673 18 48 C18.845625 47.97421875 19.69125 47.9484375 20.5625 47.921875 C29.16269896 47.49186505 35.36201885 46.72893068 41.5 40.4375 C43.61206022 35.59736199 43.82935118 31.20377208 43 26 C41.1031157 23.34436198 39.85514945 22.42757473 37 21 C35.42481672 20.96534669 33.8482271 20.98575051 32.2734375 21.03515625 C16.71599209 21.19942083 16.71599209 21.19942083 11.9765625 17.88671875 C10.07119198 15.34496953 8.53954141 12.77375477 7 10 C4.60750489 7.56926867 2.06461298 5.53230649 -1 4 C-0.67 2.68 -0.34 1.36 0 0 Z " fill="#3E7CDD" transform="translate(114,70)"/>
<path d="M0 0 C-1.78888889 5.62222222 -1.78888889 5.62222222 -3.1875 8.125 C-4.14852467 9.94545246 -4.14852467 9.94545246 -3.86328125 11.859375 C-2.62267724 14.93562386 -0.63482822 16.14155987 2 18.125 C20.72966904 33.00212392 32.01375716 54.64711862 35.08862305 78.25170898 C37.66339409 101.27538628 32.46418715 125.14434994 17.875 143.5625 C16.59332661 145.05033404 15.3026088 146.53046024 14 148 C13.51015625 148.62003906 13.0203125 149.24007812 12.515625 149.87890625 C0.49876253 164.9674948 -20.75392901 176.63539719 -40 179 C-63.34653347 181.47651179 -87.02971163 177.35694421 -105.86669922 162.53076172 C-112.13451344 157.23655583 -117.89037477 151.42352885 -123 145 C-122.505 144.01 -122.505 144.01 -122 143 C-108.00001948 141.92961314 -108.00001948 141.92961314 -103.61328125 144.27734375 C-102.38106217 145.4561043 -101.18787974 146.67667195 -100.03125 147.9296875 C-88.25976246 159.9275498 -70.05277014 164.83064472 -53.75 165.3125 C-39.10078207 164.98075371 -27.60092248 161.25044413 -15 154 C-14.13632813 153.5153125 -13.27265625 153.030625 -12.3828125 152.53125 C-1.03553737 145.58558693 6.77399089 135.55853627 13 124 C13.49371094 123.08347656 13.98742187 122.16695313 14.49609375 121.22265625 C22.63033002 104.78522331 23.71451332 84.38814029 18.390625 66.87890625 C12.90232601 50.76214766 3.49277259 36.47166358 -10 26 C-10.66 26 -11.32 26 -12 26 C-13.65 29.3 -15.3 32.6 -17 36 C-17.99 36 -18.98 36 -20 36 C-22.12709071 32.39405663 -24.24466488 28.78274425 -26.35375977 25.16625977 C-27.07189844 23.93786893 -27.79257349 22.71095712 -28.51586914 21.4855957 C-29.55772574 19.71953045 -30.59021228 17.94826982 -31.62109375 16.17578125 C-32.2442749 15.11270752 -32.86745605 14.04963379 -33.50952148 12.9543457 C-34.8899791 10.21807746 -35.58780963 8.01703842 -36 5 C-29.12800486 3.14565211 -22.21196116 1.94048594 -15.1875 0.8125 C-13.49077148 0.52729492 -13.49077148 0.52729492 -11.75976562 0.23632812 C-10.67759766 0.06166016 -9.59542969 -0.11300781 -8.48046875 -0.29296875 C-7.49973389 -0.4530542 -6.51899902 -0.61313965 -5.50854492 -0.77807617 C-3 -1 -3 -1 0 0 Z M-23.5 4.5 C-24.73363281 4.71462891 -24.73363281 4.71462891 -25.9921875 4.93359375 C-27.99584627 5.28306912 -29.99808298 5.64068156 -32 6 C-33.29799785 8.81307722 -33.29799785 8.81307722 -32.28515625 10.76953125 C-31.67994141 11.78080078 -31.67994141 11.78080078 -31.0625 12.8125 C-30.60617188 13.59109375 -30.14984375 14.3696875 -29.6796875 15.171875 C-29.12539062 16.10515625 -28.57109375 17.0384375 -28 18 C-26.92317821 19.87496087 -25.8538369 21.75407232 -24.78491211 23.63354492 C-23.19624937 26.42598637 -21.59779656 29.21277672 -20 32 C-19.01 32 -18.02 32 -17 32 C-15.68 29.36 -14.36 26.72 -13 24 C-4.29017255 25.19044354 1.80754245 33.39895024 7 40 C8.00509214 41.66360078 9.00769103 43.32874278 10 45 C10.66 45 11.32 45 12 45 C12.15275391 45.78117187 12.15275391 45.78117187 12.30859375 46.578125 C13.23071226 49.80814463 14.63436583 52.71141666 16.0625 55.75 C16.61035156 56.92046875 17.15820312 58.0909375 17.72265625 59.296875 C18.14417969 60.18890625 18.56570312 61.0809375 19 62 C19.66 62 20.32 62 21 62 C21.06058594 62.556875 21.12117187 63.11375 21.18359375 63.6875 C21.26738281 64.450625 21.35117188 65.21375 21.4375 66 C21.51871094 66.7425 21.59992188 67.485 21.68359375 68.25 C21.93153719 70.40496523 22.21984106 72.55529347 22.5234375 74.703125 C25.30193043 96.93106842 21.24820194 116.41399701 9.06640625 135.1796875 C7.83150604 136.93599867 7.83150604 136.93599867 8 139 C7.34 139 6.68 139 6 139 C6 139.66 6 140.32 6 141 C5.01 141.33 4.02 141.66 3 142 C2.1646875 143.11375 2.1646875 143.11375 1.3125 144.25 C-1.23737096 147.28227898 -3.72809232 148.80789805 -7.09375 150.8046875 C-9.42512384 152.26657356 -11.24618522 153.88080714 -13 156 C-13 156.66 -13 157.32 -13 158 C-13.763125 158.061875 -14.52625 158.12375 -15.3125 158.1875 C-18.65696192 158.92441534 -20.96067863 159.880031 -24 161.375 C-40.13174369 168.87560859 -61.01906632 169.50772892 -78 164 C-87.1817357 160.28428951 -95.60745432 155.54059549 -102.9375 148.875 C-106.90399615 145.32635801 -109.3481948 144.44370849 -114.6875 144.4375 C-116.46255383 144.57959452 -118.23679776 144.75075152 -120 145 C-111.43937264 160.7504353 -92.15497321 169.35190947 -76.0703125 175.03515625 C-56.31028965 180.66964552 -33.37471446 177.5979796 -15 169 C-11.19589039 166.84877848 -7.58643228 164.49440963 -4 162 C-3.319375 161.54367188 -2.63875 161.08734375 -1.9375 160.6171875 C1.77549059 158.07250861 4.90684533 155.26035222 8 152 C8.763125 151.278125 9.52625 150.55625 10.3125 149.8125 C12.22713951 148.16877727 12.22713951 148.16877727 12 146 C12.66 146 13.32 146 14 146 C18.10652289 141.01436811 21.07564059 135.17976969 23.84765625 129.37890625 C24.54079966 127.94797629 25.26817713 126.53192699 26.05859375 125.15234375 C35.47044565 108.48933747 35.93737939 84.72223049 31.3125 66.5625 C30.58361723 64.36066663 29.81496235 62.17144575 29 60 C28.649375 58.91460937 28.29875 57.82921875 27.9375 56.7109375 C24.13558249 45.64841364 18.22199044 34.88305799 8.90625 27.58203125 C6.7927291 25.82798214 5.13232544 23.92051977 3.375 21.8125 C0.53381409 18.44879714 -2.20843568 16.21945228 -6 14 C-5.54177532 10.53058454 -5.10868317 7.32604951 -4 4 C-9.61189426 1.19405287 -17.57807959 3.42942481 -23.5 4.5 Z " fill="#42619E" transform="translate(178,25)"/>
<path d="M0 0 C0.67991501 -0.0049649 1.35983002 -0.00992981 2.06034851 -0.01504517 C4.32515463 -0.02972399 6.5898903 -0.03648442 8.85473633 -0.04199219 C10.43402609 -0.04774672 12.01331585 -0.05350441 13.59260559 -0.05926514 C16.91753464 -0.06979658 20.24243941 -0.07562264 23.56738281 -0.07910156 C27.79117869 -0.08453746 32.01464415 -0.10844919 36.23833752 -0.13707352 C39.50984053 -0.15588705 42.78126771 -0.16091571 46.05282021 -0.16243744 C47.60706669 -0.1654315 49.16131292 -0.17334764 50.7155056 -0.18662262 C65.86531635 -0.30659564 80.25681824 0.70713887 91.97192383 11.42285156 C100.98087581 20.754075 103.90675051 30.71725153 103.77661133 43.48535156 C102.55161903 59.72081287 95.6630967 71.69879169 83.49926758 82.16113281 C69.22047283 93.10507747 52.65550413 92.81437827 35.48168945 92.94506836 C31.71623153 92.97388564 27.95184985 93.02906136 24.18676758 93.08886719 C21.79616225 93.12096652 19.40553696 93.15161922 17.01489258 93.18066406 C15.88794983 93.19515091 14.76100708 93.20963776 13.59991455 93.2245636 C12.56413269 93.23174911 11.52835083 93.23893463 10.46118164 93.24633789 C9.54854553 93.25425858 8.63590942 93.26217926 7.69561768 93.27033997 C5.49926758 93.16113281 5.49926758 93.16113281 3.49926758 92.16113281 C4.0753073 86.09041624 5.01618781 80.34491789 6.49536133 74.43457031 C6.68896744 73.64265289 6.88257355 72.85073547 7.08204651 72.03482056 C7.69500629 69.53392493 8.31590164 67.03507587 8.93676758 64.53613281 C9.34936654 62.85396116 9.76147983 61.17167029 10.1730957 59.48925781 C10.57174933 57.86675506 10.97082356 56.24435558 11.37036133 54.62207031 C11.55376572 53.87710297 11.7371701 53.13213562 11.9261322 52.36459351 C12.27559949 50.95890156 12.62996202 49.55441488 12.98989868 48.15136719 C13.48884798 46.20184485 13.96561882 44.24668911 14.44189453 42.29150391 C15.87913067 38.0365416 18.52479327 36.54270179 22.24926758 34.41113281 C22.85770508 34.03859375 23.46614258 33.66605469 24.09301758 33.28222656 C27.79937964 31.04098625 31.60033104 29.05080144 35.49926758 27.16113281 C35.12668801 29.69899363 34.83548192 30.87065646 32.86254883 32.57519531 C28.80059284 34.97368361 25.01799057 36.72836699 20.49926758 38.16113281 C20.16926758 38.82113281 19.83926758 39.48113281 19.49926758 40.16113281 C18.83926758 40.16113281 18.17926758 40.16113281 17.49926758 40.16113281 C17.37680664 41.30066406 17.2543457 42.44019531 17.12817383 43.61425781 C16.56288299 48.14057247 15.54743677 52.49200379 14.43676758 56.91113281 C13.39189471 61.06893143 12.49926758 64.83509963 12.49926758 69.16113281 C11.83926758 69.16113281 11.17926758 69.16113281 10.49926758 69.16113281 C10.51086914 69.93199219 10.5224707 70.70285156 10.53442383 71.49707031 C10.54344727 72.49996094 10.5524707 73.50285156 10.56176758 74.53613281 C10.57336914 75.53386719 10.5849707 76.53160156 10.59692383 77.55957031 C10.49926758 80.16113281 10.49926758 80.16113281 9.49926758 82.16113281 C8.83926758 82.16113281 8.17926758 82.16113281 7.49926758 82.16113281 C7.49926758 84.80113281 7.49926758 87.44113281 7.49926758 90.16113281 C14.77692096 90.06858389 22.05424985 89.96124219 29.33154297 89.84375 C31.80577683 89.80553289 34.28006488 89.77066748 36.75439453 89.73925781 C40.31668423 89.69344979 43.87860327 89.63548039 47.44067383 89.57519531 C48.54198135 89.5636441 49.64328888 89.5520929 50.77796936 89.54019165 C56.39901954 89.43285564 61.19101363 89.04262983 66.49926758 87.16113281 C67.30235352 86.88011719 68.10543945 86.59910156 68.93286133 86.30957031 C69.92479492 85.92671875 69.92479492 85.92671875 70.93676758 85.53613281 C72.11239258 85.08238281 73.28801758 84.62863281 74.49926758 84.16113281 C74.16926758 83.50113281 73.83926758 82.84113281 73.49926758 82.16113281 C74.55114258 81.91363281 75.60301758 81.66613281 76.68676758 81.41113281 C80.32665486 80.3943222 82.62537962 78.62446535 85.49926758 76.16113281 C86.15926758 76.16113281 86.81926758 76.16113281 87.49926758 76.16113281 C87.7699707 75.58363281 88.04067383 75.00613281 88.31958008 74.41113281 C89.50538621 72.14946283 90.86861904 70.22067278 92.37426758 68.16113281 C99.40632561 57.54410403 100.63092984 46.58309998 99.49926758 34.16113281 C98.56856636 31.95414287 98.56856636 31.95414287 97.49926758 30.16113281 C97.37551758 28.88238281 97.25176758 27.60363281 97.12426758 26.28613281 C96.70871456 22.08355893 95.00880761 19.56115479 92.49926758 16.16113281 C92.49926758 15.50113281 92.49926758 14.84113281 92.49926758 14.16113281 C91.50926758 14.16113281 90.51926758 14.16113281 89.49926758 14.16113281 C88.79801758 13.41863281 88.09676758 12.67613281 87.37426758 11.91113281 C80.86612156 5.68594967 72.90509739 4.02907885 64.16040039 3.95581055 C63.42829849 3.94591095 62.69619659 3.93601135 61.94190979 3.92581177 C59.52876997 3.89429461 57.11561048 3.86947817 54.70239258 3.84472656 C53.02658586 3.82414858 51.35078424 3.80315188 49.67498779 3.78175354 C45.26918671 3.72662007 40.86333945 3.67717239 36.4574585 3.62890625 C31.95963442 3.57862745 27.4618772 3.52297471 22.96411133 3.46777344 C14.14255389 3.36029861 5.32093834 3.25883001 -3.50073242 3.16113281 C-2.35058526 5.63086847 -1.48486357 7.17650576 0.49926758 9.09863281 C2.68165695 11.34922185 3.47053955 13.23321459 4.49926758 16.16113281 C6.26310958 17.92497481 8.78808722 17.31355465 11.18066406 17.3347168 C12.39539902 17.34820663 13.61013397 17.36169647 14.86167908 17.37559509 C15.51479506 17.38065504 16.16791103 17.38571499 16.84081841 17.39092827 C18.87884073 17.40729466 20.91667527 17.43052982 22.9546051 17.45582581 C28.7500783 17.52672525 34.5456283 17.58676986 40.34130859 17.63793945 C43.88278494 17.6696894 47.42404643 17.71095486 50.9653492 17.75813484 C52.31733404 17.77417989 53.66936843 17.78648987 55.02142143 17.79504204 C56.91051806 17.80716326 58.79951739 17.83234234 60.68847656 17.8581543 C62.30277809 17.87361549 62.30277809 17.87361549 63.94969177 17.88938904 C66.49926758 18.16113281 66.49926758 18.16113281 68.49926758 20.16113281 C60.19784002 20.51021388 51.89951994 20.77591289 43.59254646 20.93831539 C39.73393084 21.01630921 35.88036524 21.12182744 32.0246582 21.29272461 C7.12806814 22.36833091 7.12806814 22.36833091 1.10510254 18.70489502 C-3.82777443 13.93940591 -6.16866653 7.81333113 -7.50073242 1.16113281 C-5.63353754 -0.70606207 -2.49127066 0.01377779 0 0 Z " fill="#24448B" transform="translate(24.500732421875,69.8388671875)"/>
<path d="M0 0 C5.04962778 -0.0499887 10.09910685 -0.08599384 15.14892578 -0.10986328 C16.86151646 -0.11982955 18.57409054 -0.13340747 20.28662109 -0.15087891 C50.4018037 -0.45009463 50.4018037 -0.45009463 60.8125 9.375 C67.38440645 16.3810415 68.32446444 23.66625536 68.2109375 32.94140625 C67.54816748 42.55157155 62.62007197 50.99528949 55.5 57.375 C52.1573688 60.04317568 48.41941531 63 44 63 C45.22655025 65.48049244 46.45569475 67.95961724 47.6875 70.4375 C48.05037109 71.1687207 48.41324219 71.89994141 48.78710938 72.65332031 C51.09354353 77.27233365 53.50387019 81.78926019 56.1875 86.203125 C57 88 57 88 57 92 C49.08 92 41.16 92 33 92 C30.99504706 88.21087763 28.9958499 84.41891288 27 80.625 C26.42765625 79.54476562 25.8553125 78.46453125 25.265625 77.3515625 C24.72421875 76.3203125 24.1828125 75.2890625 23.625 74.2265625 C23.12226563 73.27346191 22.61953125 72.32036133 22.1015625 71.33837891 C21 69 21 69 21 67 C18.69 67 16.38 67 14 67 C12.60964629 62.82893888 14.09769194 59.81793141 15.4375 55.8125 C15.68048828 55.06291016 15.92347656 54.31332031 16.17382812 53.54101562 C16.77465056 51.69142499 17.38629678 49.84535673 18 48 C18.845625 47.97421875 19.69125 47.9484375 20.5625 47.921875 C29.16269896 47.49186505 35.36201885 46.72893068 41.5 40.4375 C43.61206022 35.59736199 43.82935118 31.20377208 43 26 C41.1031157 23.34436198 39.85514945 22.42757473 37 21 C35.42481672 20.96534669 33.8482271 20.98575051 32.2734375 21.03515625 C16.71599209 21.19942083 16.71599209 21.19942083 11.9765625 17.88671875 C10.07119198 15.34496953 8.53954141 12.77375477 7 10 C4.60750489 7.56926867 2.06461298 5.53230649 -1 4 C-0.67 2.68 -0.34 1.36 0 0 Z M5 3 C6.41290984 6.73574442 7.83909239 9.24803918 10.5625 12.1875 C13.91799544 15.83599089 13.91799544 15.83599089 15 18 C15.96039185 18.02187378 15.96039185 18.02187378 16.94018555 18.04418945 C19.85654831 18.11891382 22.77179687 18.21549293 25.6875 18.3125 C26.69490234 18.33505859 27.70230469 18.35761719 28.74023438 18.38085938 C37.70730885 18.70639673 37.70730885 18.70639673 42 22 C42.99 22.33 43.98 22.66 45 23 C46.03202059 37.67762612 46.03202059 37.67762612 42.4375 42.75 C36.12254081 49.50451552 28.77573815 49.58210771 20 50 C18.24265549 54.97361654 16.67415387 59.7415998 16 65 C16.86625 65.12375 17.7325 65.2475 18.625 65.375 C27.01955631 69.41682341 30.42137237 81.99069054 34 90 C40.6 90 47.2 90 54 90 C52.24379027 84.71899465 52.24379027 84.71899465 49.87109375 79.90625 C49.47599609 79.18566406 49.08089844 78.46507812 48.67382812 77.72265625 C47.84868469 76.23922303 47.02054966 74.75744995 46.18945312 73.27734375 C43.94130995 69.16372007 42.42898949 65.75651504 42 61 C43.051875 60.731875 44.10375 60.46375 45.1875 60.1875 C48.59072912 59.12747781 51.13158918 58.08611696 54 56 C54 55.34 54 54.68 54 54 C54.59554687 53.76796875 55.19109375 53.5359375 55.8046875 53.296875 C60.6729272 50.42097539 63.00320835 44.08420073 65.375 39.125 C67.35093279 29.24533603 66.01044409 21.39803769 61.1875 12.75 C58.72918619 9.65954835 56.46667165 7.87778048 53 6 C51.68 6 50.36 6 49 6 C49 5.34 49 4.68 49 4 C44.31367437 2.80463539 39.77970671 2.87240164 34.98046875 2.90234375 C34.12189774 2.9037587 33.26332672 2.90517365 32.3787384 2.90663147 C29.64828951 2.91220943 26.91792393 2.92475786 24.1875 2.9375 C22.3313814 2.94251785 20.4752615 2.94708026 18.61914062 2.95117188 C14.0793952 2.96217164 9.5397117 2.97942107 5 3 Z " fill="#3F609C" transform="translate(114,70)"/>
<path d="M0 0 C2 1.0625 2 1.0625 3 3 C3.0625 6.4375 3.0625 6.4375 2 10 C-0.7362017 12.44039611 -3.41439562 13.72110065 -6.71484375 15.29296875 C-14.89497333 19.21985206 -22.17729498 23.56317811 -28.1640625 30.51171875 C-33.56262077 36.76423078 -33.56262077 36.76423078 -38.453125 37.56640625 C-41.68541742 37.5629081 -44.79444099 37.40131419 -48 37 C-48.495 35.515 -48.495 35.515 -49 34 C-41.24682639 19.42895626 -17.80356572 -2.4924992 0 0 Z " fill="#417CD8" transform="translate(101,28)"/>
<path d="M0 0 C0.99 0.33 1.98 0.66 3 1 C4.6635348 4.56630705 5.7531816 8.25954481 7 12 C10.96 12.33 14.92 12.66 19 13 C19 13.99 19 14.98 19 16 C17.25 17.60546875 17.25 17.60546875 15 19.1875 C14.2575 19.71730469 13.515 20.24710938 12.75 20.79296875 C12.1725 21.19128906 11.595 21.58960937 11 22 C11.71452588 26.76350585 12.79534844 31.34201396 14 36 C10.21787473 35.66628306 8.9376836 34.94547315 6 32.375 C3.30982831 29.7728968 3.30982831 29.7728968 0.5 29.875 C-1.82373404 30.92068032 -3.21818519 31.92339072 -5.125 33.5625 C-8 36 -8 36 -11 36 C-10.855625 35.175 -10.71125 34.35 -10.5625 33.5 C-9.94746848 29.67313722 -9.46439363 25.84783293 -9 22 C-9.5775 21.60167969 -10.155 21.20335938 -10.75 20.79296875 C-11.86375 19.99826172 -11.86375 19.99826172 -13 19.1875 C-13.7425 18.66542969 -14.485 18.14335937 -15.25 17.60546875 C-16.11625 16.81076172 -16.11625 16.81076172 -17 16 C-17 15.01 -17 14.02 -17 13 C-12.71 13 -8.42 13 -4 13 C-3.566875 11.1746875 -3.566875 11.1746875 -3.125 9.3125 C-2.32164208 6.08185352 -1.33734591 3.05679065 0 0 Z " fill="#1D56C5" transform="translate(121,8)"/>
<path d="M0 0 C5.60626805 1.35909528 8.84566627 5.42662153 12 10 C15.97173516 18.37918809 13.35726015 27.53677667 10.75 35.9375 C10.55784912 36.58855713 10.36569824 37.23961426 10.16772461 37.91040039 C9.10100412 41.11811239 8.3079831 42.78257168 5.515625 44.75390625 C4.68546875 45.16511719 3.8553125 45.57632813 3 46 C1.99491104 46.99488501 0.99466678 47.99469507 0 49 C-1.42727823 49.92479076 -2.88880447 50.79820863 -4.375 51.625 C-5.50035156 52.26308594 -5.50035156 52.26308594 -6.6484375 52.9140625 C-11.080202 54.96062484 -15.34442769 55.12145602 -20.17578125 55.09765625 C-21.33271484 55.09443359 -22.48964844 55.09121094 -23.68164062 55.08789062 C-24.87982422 55.07951172 -26.07800781 55.07113281 -27.3125 55.0625 C-28.53001953 55.05798828 -29.74753906 55.05347656 -31.00195312 55.04882812 C-34.00135226 55.03706578 -37.00065089 55.02062826 -40 55 C-40.93773907 51.98932109 -41.00689452 49.98538975 -40.30322266 46.92163086 C-40.12618805 46.13078598 -39.94915344 45.3399411 -39.76675415 44.52513123 C-39.56786591 43.68023636 -39.36897766 42.83534149 -39.1640625 41.96484375 C-38.96525482 41.08977676 -38.76644714 40.21470978 -38.56161499 39.31312561 C-37.92451759 36.51923966 -37.27474425 33.72846876 -36.625 30.9375 C-36.19451707 29.0542181 -35.76482035 27.17075631 -35.3359375 25.28710938 C-34.54705624 21.8399978 -33.75721154 18.3931424 -32.95556641 14.94897461 C-32.79488678 14.25710556 -32.63420715 13.56523651 -32.46865845 12.85240173 C-32.05416545 11.2140923 -31.53440268 9.60320804 -31 8 C-31.66 8 -32.32 8 -33 8 C-32.67 7.01 -32.34 6.02 -32 5 C-30.68 5 -29.36 5 -28 5 C-28.64905494 10.9581449 -29.72394243 16.69325494 -31.06640625 22.53125 C-31.36393044 23.84603333 -31.36393044 23.84603333 -31.66746521 25.18737793 C-32.29554115 27.95908453 -32.92892948 30.72954481 -33.5625 33.5 C-33.99188951 35.39054485 -34.42092944 37.28116913 -34.84960938 39.171875 C-35.89570028 43.7821782 -36.946554 48.39137211 -38 53 C-34.54078551 52.91785387 -31.08317495 52.8051401 -27.625 52.6875 C-26.65949219 52.66494141 -25.69398437 52.64238281 -24.69921875 52.61914062 C-12.70517923 52.17640762 -4.35489218 49.1783674 4.25 40.8125 C9.49383711 32.38490465 11.54328922 23.48686587 9.52734375 13.70703125 C7.89754085 8.50532498 5.27221027 6.25059477 1 3 C0.505 1.515 0.505 1.515 0 0 Z " fill="#22458D" transform="translate(94,90)"/>
<path d="M0 0 C0.33 0.99 0.66 1.98 1 3 C-3.89063604 6.45604947 -8.21458904 9.26437671 -14 11 C-14.33 11.66 -14.66 12.32 -15 13 C-15.66 13 -16.32 13 -17 13 C-17.12246094 14.13953125 -17.24492188 15.2790625 -17.37109375 16.453125 C-17.93638459 20.97943966 -18.95183081 25.33087098 -20.0625 29.75 C-21.10737287 33.90779862 -22 37.67396682 -22 42 C-22.66 42 -23.32 42 -24 42 C-23.98839844 42.77085937 -23.97679687 43.54171875 -23.96484375 44.3359375 C-23.95130859 45.84027344 -23.95130859 45.84027344 -23.9375 47.375 C-23.92589844 48.37273437 -23.91429687 49.37046875 -23.90234375 50.3984375 C-24 53 -24 53 -25 55 C-25.66 55 -26.32 55 -27 55 C-27 57.64 -27 60.28 -27 63 C-9.84 63.33 7.32 63.66 25 64 C25 64.33 25 64.66 25 65 C17.34633305 65.16795977 9.6925291 65.32789923 2.03857422 65.48217773 C-0.56693344 65.53565322 -3.17240363 65.59098672 -5.77783203 65.64819336 C-9.51586832 65.72994957 -13.253987 65.80509304 -16.9921875 65.87890625 C-18.16304901 65.90594131 -19.33391052 65.93297638 -20.54025269 65.96083069 C-21.62122223 65.98092697 -22.70219177 66.00102325 -23.81591797 66.02172852 C-24.77078094 66.04171402 -25.72564392 66.06169952 -26.70944214 66.08229065 C-29 66 -29 66 -31 65 C-30.42396028 58.92928342 -29.48307977 53.18378508 -28.00390625 47.2734375 C-27.71349709 46.08556137 -27.71349709 46.08556137 -27.41722107 44.87368774 C-26.80426129 42.37279212 -26.18336593 39.87394306 -25.5625 37.375 C-25.14990103 35.69282834 -24.73778775 34.01053748 -24.32617188 32.328125 C-23.92751825 30.70562225 -23.52844402 29.08322276 -23.12890625 27.4609375 C-22.94550186 26.71597015 -22.76209747 25.97100281 -22.57313538 25.20346069 C-22.22366538 23.79775787 -21.86925885 22.39327039 -21.50923157 20.99023438 C-21.01045488 19.04086092 -20.53475364 17.08562961 -20.05957031 15.13037109 C-18.61415583 10.86007053 -15.93104553 9.37710177 -12.1875 7.25 C-11.57068359 6.87746094 -10.95386719 6.50492187 -10.31835938 6.12109375 C-8.55624698 5.06120468 -6.78025476 4.02902525 -5 3 C-3.33235966 2.00162459 -1.66526565 1.00233133 0 0 Z " fill="#334F93" transform="translate(59,97)"/>
<path d="M0 0 C1.31238144 0.0199855 2.62476288 0.03997101 3.97691345 0.06056213 C4.6988237 0.07016968 5.42073395 0.07977722 6.16452026 0.0896759 C8.56163447 0.12277802 10.95857272 0.1630672 13.35557556 0.2033844 C15.01323823 0.22767458 16.67090749 0.25151868 18.32858276 0.27493286 C22.70002224 0.33788352 27.07134559 0.40691882 31.44267273 0.47718811 C35.89991448 0.54777265 40.35723884 0.61264864 44.81455994 0.67799377 C53.56660449 0.80714757 62.31853464 0.94272441 71.07041931 1.08229065 C71.07041931 1.41229065 71.07041931 1.74229065 71.07041931 2.08229065 C47.31041931 2.08229065 23.55041931 2.08229065 -0.92958069 2.08229065 C0.74262527 5.97877674 0.74262527 5.97877674 3.07041931 8.01979065 C5.25280868 10.27037969 6.04169129 12.15437243 7.07041931 15.08229065 C8.83426131 16.84613265 11.35923895 16.23471249 13.7518158 16.25587463 C14.96655075 16.26936447 16.18128571 16.28285431 17.43283081 16.29675293 C18.08594679 16.30181288 18.73906277 16.30687283 19.41197014 16.31208611 C21.44999247 16.32845249 23.487827 16.35168766 25.52575684 16.37698364 C31.32123003 16.44788309 37.11678004 16.5079277 42.91246033 16.55909729 C46.45393668 16.59084723 49.99519817 16.6321127 53.53650093 16.67929268 C54.88848577 16.69533773 56.24052016 16.70764771 57.59257317 16.71619987 C59.4816698 16.7283211 61.37066913 16.75350017 63.2596283 16.77931213 C64.87392982 16.79477333 64.87392982 16.79477333 66.52084351 16.81054688 C69.07041931 17.08229065 69.07041931 17.08229065 71.07041931 19.08229065 C62.73415531 19.36116385 54.39985848 19.57394066 46.06007385 19.70403671 C42.18667657 19.76650244 38.31648347 19.85109102 34.44493103 19.98756409 C30.70339439 20.11861835 26.96492313 20.18982375 23.2212677 20.22081757 C21.79835212 20.24287933 20.37559256 20.28597343 18.95399475 20.35105133 C14.4177233 20.55032404 10.40564281 20.49028816 6.07041931 19.08229065 C0.81877658 14.02247875 -1.81500313 7.96417687 -3.92958069 1.08229065 C-2.92958069 0.08229065 -2.92958069 0.08229065 0 0 Z " fill="#1D3680" transform="translate(21.929580688476563,70.91770935058594)"/>
<path d="M0 0 C2 1.0625 2 1.0625 3 3 C3.0625 6.4375 3.0625 6.4375 2 10 C-0.7362017 12.44039611 -3.41439562 13.72110065 -6.71484375 15.29296875 C-14.89497333 19.21985206 -22.17729498 23.56317811 -28.1640625 30.51171875 C-33.56262077 36.76423078 -33.56262077 36.76423078 -38.453125 37.56640625 C-41.68541742 37.5629081 -44.79444099 37.40131419 -48 37 C-48.495 35.515 -48.495 35.515 -49 34 C-41.24682639 19.42895626 -17.80356572 -2.4924992 0 0 Z M-12.9375 5.25 C-13.85619873 5.72771851 -13.85619873 5.72771851 -14.79345703 6.21508789 C-18.92140257 8.37569785 -22.99669263 10.61707895 -27 13 C-27 13.66 -27 14.32 -27 15 C-27.721875 15.23332031 -28.44375 15.46664062 -29.1875 15.70703125 C-36.70014039 19.16075898 -42.61886706 27.13622507 -47 34 C-47 34.33 -47 34.66 -47 35 C-39.44283815 36.04910984 -39.44283815 36.04910984 -32.71484375 33.25390625 C-31.01999498 31.23520103 -29.51898473 29.15113706 -28 27 C-27.34 26.67 -26.68 26.34 -26 26 C-26 25.34 -26 24.68 -26 24 C-25.443125 23.731875 -24.88625 23.46375 -24.3125 23.1875 C-21.78774666 21.89100504 -19.36285516 20.57523677 -17 19 C-17 18.34 -17 17.68 -17 17 C-16.47792969 16.89042969 -15.95585938 16.78085937 -15.41796875 16.66796875 C-12.25787102 15.79498537 -9.32808703 14.59910544 -6.3125 13.3125 C-5.15363281 12.83425781 -3.99476562 12.35601562 -2.80078125 11.86328125 C0.28155598 10.23751666 0.28155598 10.23751666 0.95703125 6.91796875 C1.22300343 4.06239466 1.22300343 4.06239466 0 2 C-5.21622983 1.58714771 -8.34283814 2.83336017 -12.9375 5.25 Z " fill="#43649D" transform="translate(101,28)"/>
<path d="M0 0 C4.81561961 1.38828673 7.28962564 4.20237413 10.3125 8 C10.76689453 8.5465625 11.22128906 9.093125 11.68945312 9.65625 C15 13.71851504 15 13.71851504 15 16 C15.96039185 15.97643433 15.96039185 15.97643433 16.94018555 15.95239258 C19.85586631 15.88982885 22.77140555 15.85094192 25.6875 15.8125 C26.69490234 15.78736328 27.70230469 15.76222656 28.74023438 15.73632812 C37.88238875 15.64581175 37.88238875 15.64581175 42 19 C42.99 19.66 43.98 20.32 45 21 C46.84732789 26.54198366 47.31439381 32.98804962 44.94140625 38.42578125 C41.61033259 43.21927749 37.63162663 46.39229141 32 48 C27.97402943 48.57867145 24.07373421 48.81483026 20 49 C18.68 53.62 17.36 58.24 16 63 C17.32 63.33 18.64 63.66 20 64 C17.69 64 15.38 64 13 64 C13.64297504 61.37426939 14.28924411 58.74942697 14.9375 56.125 C15.11990234 55.37863281 15.30230469 54.63226563 15.49023438 53.86328125 C16.88671875 48.2265625 16.88671875 48.2265625 18 46 C20.01408339 45.79297234 22.03870585 45.68541177 24.0625 45.625 C31.51766083 45.14270341 36.25397096 43.81467977 41.5 38.4375 C43.61206022 33.59736199 43.82935118 29.20377208 43 24 C41.1031157 21.34436198 39.85514945 20.42757473 37 19 C35.42481672 18.96534669 33.8482271 18.98575051 32.2734375 19.03515625 C16.71599209 19.19942083 16.71599209 19.19942083 11.9765625 15.88671875 C10.07183362 13.34582548 8.54585632 10.76876215 7 8 C5.32090881 6.3301544 5.32090881 6.3301544 3.5625 5.0625 C1 3 1 3 0 0 Z " fill="#415E99" transform="translate(114,72)"/>
<path d="M0 0 C0.33 0 0.66 0 1 0 C1.31435058 3.22646569 1.56866446 6.45500133 1.8125 9.6875 C1.90208984 10.59951172 1.99167969 11.51152344 2.08398438 12.45117188 C2.5552532 19.2721681 2.5552532 19.2721681 -0.3125 23.03125 C-2.80799602 24.85934592 -5.28126763 26.52411671 -8 28 C-7.855625 27.34 -7.71125 26.68 -7.5625 26 C-6.87700084 22.34400449 -6.43824485 18.69377805 -6 15 C-6.598125 14.731875 -7.19625 14.46375 -7.8125 14.1875 C-10 13 -10 13 -13 10 C-9.7 9.67 -6.4 9.34 -3 9 C-2.01 6.03 -1.02 3.06 0 0 Z " fill="#427CDA" transform="translate(121,13)"/>
<path d="M0 0 C0.66 0.33 1.32 0.66 2 1 C2 1.66 2 2.32 2 3 C4.84090933 3.80733616 7.36637674 4.12830323 10.31640625 4.1328125 C11.15349121 4.13466553 11.99057617 4.13651855 12.85302734 4.13842773 C13.74715332 4.13399658 14.6412793 4.12956543 15.5625 4.125 C16.95782959 4.12318726 16.95782959 4.12318726 18.38134766 4.12133789 C24.56401146 4.08727507 30.70598434 3.83076681 36.875 3.4375 C47.61178415 2.77521651 58.68312371 2.56104124 69 6 C69.99 6.99 69.99 6.99 71 8 C72.32392972 9.01241685 73.65599167 10.01439389 75 11 C74.67 11.99 74.34 12.98 74 14 C72.53515625 12.66536458 71.0703125 11.33072917 69.60546875 9.99609375 C69.07566406 9.66738281 68.54585938 9.33867188 68 9 C67.01 9.33 66.02 9.66 65 10 C64.01 9.34 63.02 8.68 62 8 C62.33 7.67 62.66 7.34 63 7 C62.24244919 6.99413376 61.48489838 6.98826752 60.70439148 6.98222351 C53.5677729 6.92433762 46.4315051 6.8522853 39.29519939 6.76428509 C35.62626526 6.71954286 31.95744315 6.68029566 28.28833008 6.65356445 C24.74789938 6.62756926 21.20789888 6.58719483 17.66773415 6.53681374 C15.65868965 6.51199022 13.64947883 6.50209019 11.64030457 6.49235535 C10.41926529 6.47256119 9.19822601 6.45276703 7.94018555 6.43237305 C6.32469063 6.41571846 6.32469063 6.41571846 4.67655945 6.39872742 C1.70200289 5.95560733 0.7992901 5.34803065 -1 3 C-0.67 2.01 -0.34 1.02 0 0 Z " fill="#1D4EB4" transform="translate(28,82)"/>
<path d="M0 0 C0.66 0 1.32 0 2 0 C3.32 3.63 4.64 7.26 6 11 C9.96 11.33 13.92 11.66 18 12 C18 12.99 18 13.98 18 15 C16.25 16.60546875 16.25 16.60546875 14 18.1875 C13.2575 18.71730469 12.515 19.24710938 11.75 19.79296875 C11.1725 20.19128906 10.595 20.58960937 10 21 C10.71452588 25.76350585 11.79534844 30.34201396 13 35 C7.64847115 34.67566492 4.71719957 31.50295176 1 28 C1.33 27.34 1.66 26.68 2 26 C3.98 27.32 5.96 28.64 8 30 C7.85820312 29.33613281 7.71640625 28.67226563 7.5703125 27.98828125 C6.38432394 20.86194648 6.38432394 20.86194648 8.26953125 18.22265625 C9.9375 16.875 9.9375 16.875 13 15 C9.7 14.34 6.4 13.68 3 13 C1.68373308 9.38026598 1 6.90432869 1 3 C0.34 2.67 -0.32 2.34 -1 2 C-0.67 1.34 -0.34 0.68 0 0 Z " fill="#274179" transform="translate(122,9)"/>
<path d="M0 0 C0.66 0.33 1.32 0.66 2 1 C1.35799564 3.14698202 0.71129254 5.29255953 0.0625 7.4375 C-0.29714844 8.63246094 -0.65679687 9.82742187 -1.02734375 11.05859375 C-2 14 -2 14 -3 15 C-4.51469448 15.23192865 -6.03754562 15.41215238 -7.5625 15.5625 C-8.38878906 15.64628906 -9.21507813 15.73007812 -10.06640625 15.81640625 C-10.70449219 15.87699219 -11.34257813 15.93757813 -12 16 C-11.030625 16.556875 -10.06125 17.11375 -9.0625 17.6875 C-6 20 -6 20 -5 22.3125 C-5 25.79948626 -5.90249304 28.70747912 -7 32 C-6.071875 31.175 -5.14375 30.35 -4.1875 29.5 C-1.375 27 -1.375 27 2 27 C2 27.66 2 28.32 2 29 C0.03501678 30.38442 -1.97048465 31.71203834 -4 33 C-5.0828125 33.86625 -5.0828125 33.86625 -6.1875 34.75 C-8 36 -8 36 -11 36 C-10.855625 35.175 -10.71125 34.35 -10.5625 33.5 C-9.94746848 29.67313722 -9.46439363 25.84783293 -9 22 C-9.5775 21.60167969 -10.155 21.20335938 -10.75 20.79296875 C-11.86375 19.99826172 -11.86375 19.99826172 -13 19.1875 C-13.7425 18.66542969 -14.485 18.14335937 -15.25 17.60546875 C-16.11625 16.81076172 -16.11625 16.81076172 -17 16 C-17 15.01 -17 14.02 -17 13 C-12.71 13 -8.42 13 -4 13 C-3.566875 11.1746875 -3.566875 11.1746875 -3.125 9.3125 C-2.32164208 6.08185352 -1.33734591 3.05679065 0 0 Z " fill="#3F5B9D" transform="translate(121,8)"/>
<path d="M0 0 C0.33 0.66 0.66 1.32 1 2 C1.66 2 2.32 2 3 2 C1.45006601 13.17340476 -1.30910577 24.05805524 -4 35 C-4.33 35 -4.66 35 -5 35 C-4.48738575 28.96860253 -3.89165827 22.9868484 -3 17 C-3 16.34 -3 15.68 -3 15 C-4.32 14.34 -5.64 13.68 -7 13 C-7 12.01 -7 11.02 -7 10 C-7.99 10.33 -8.98 10.66 -10 11 C-10 11.66 -10 12.32 -10 13 C-11.98 13.33 -13.96 13.66 -16 14 C-15 11 -15 11 -13.109375 9.9375 C-12.33078125 9.628125 -11.5521875 9.31875 -10.75 9 C-5.65775021 6.9036765 -5.65775021 6.9036765 -1 4 C-0.12177688 1.91466367 -0.12177688 1.91466367 0 0 Z " fill="#1E57C4" transform="translate(60,96)"/>
<path d="M0 0 C1.31238144 0.0199855 2.62476288 0.03997101 3.97691345 0.06056213 C4.6988237 0.07016968 5.42073395 0.07977722 6.16452026 0.0896759 C8.56163447 0.12277802 10.95857272 0.1630672 13.35557556 0.2033844 C15.01323823 0.22767458 16.67090749 0.25151868 18.32858276 0.27493286 C22.70002224 0.33788352 27.07134559 0.40691882 31.44267273 0.47718811 C35.89991448 0.54777265 40.35723884 0.61264864 44.81455994 0.67799377 C53.56660449 0.80714757 62.31853464 0.94272441 71.07041931 1.08229065 C71.07041931 1.41229065 71.07041931 1.74229065 71.07041931 2.08229065 C47.31041931 2.08229065 23.55041931 2.08229065 -0.92958069 2.08229065 C0.72275304 6.01160673 0.72275304 6.01160673 3.19541931 7.95729065 C5.07041931 10.08229065 5.07041931 10.08229065 5.32041931 13.33229065 C5.23791931 14.23979065 5.15541931 15.14729065 5.07041931 16.08229065 C0.30517912 11.64568771 -2.05154369 7.2942592 -3.92958069 1.08229065 C-2.92958069 0.08229065 -2.92958069 0.08229065 0 0 Z " fill="#0C40A2" transform="translate(21.929580688476563,70.91770935058594)"/>
<path d="M0 0 C1.32 0 2.64 0 4 0 C3.37149655 5.65373774 2.41417371 11.11223448 1.15234375 16.65625 C0.88811363 17.83785706 0.88811363 17.83785706 0.61854553 19.04333496 C0.06170924 21.52969387 -0.50030202 24.01484858 -1.0625 26.5 C-1.44370382 28.19783937 -1.82456643 29.89575538 -2.20507812 31.59375 C-3.13277909 35.73006265 -4.06511917 39.86530448 -5 44 C-5.33 44 -5.66 44 -6 44 C-5.95351612 29.91538438 -2.38441484 16.59481288 1 3 C0.34 3 -0.32 3 -1 3 C-0.67 2.01 -0.34 1.02 0 0 Z " fill="#26428B" transform="translate(62,95)"/>
<path d="M0 0 C7.01063899 -0.91443117 11.50502957 1.77631649 17 6 C22.23560319 10.91291579 27.13662119 15.94578023 29 23 C28.8125 26.875 28.8125 26.875 28 30 C27.34 30.33 26.68 30.66 26 31 C25.90203125 30.20335938 25.8040625 29.40671875 25.703125 28.5859375 C24.81558992 22.29668027 23.94120515 17.99219319 20 13 C20 12.34 20 11.68 20 11 C19.01 11 18.02 11 17 11 C16.360625 10.278125 15.72125 9.55625 15.0625 8.8125 C11.13381168 4.54218661 5.30649244 2.98887675 0 1 C0 0.67 0 0.34 0 0 Z " fill="#224791" transform="translate(97,73)"/>
<path d="M0 0 C1.09651823 3.41139003 0.94215473 6.20655581 0.5625 9.75 C0.40974609 11.22726563 0.40974609 11.22726563 0.25390625 12.734375 C0.12822266 13.85585937 0.12822266 13.85585937 0 15 C0.6705542 14.96447021 1.3411084 14.92894043 2.03198242 14.89233398 C5.08352736 14.73428164 8.13546617 14.58579918 11.1875 14.4375 C12.24259766 14.38142578 13.29769531 14.32535156 14.38476562 14.26757812 C15.40634766 14.21923828 16.42792969 14.17089844 17.48046875 14.12109375 C18.41785889 14.0739624 19.35524902 14.02683105 20.32104492 13.97827148 C23.01302932 14.00010568 25.38516976 14.38413594 28 15 C24.56632144 17.09352976 21.90636407 17.23437612 17.921875 17.1953125 C16.18164062 17.18564453 16.18164062 17.18564453 14.40625 17.17578125 C13.1996875 17.15902344 11.993125 17.14226562 10.75 17.125 C8.91695312 17.11146484 8.91695312 17.11146484 7.046875 17.09765625 C4.03105218 17.07409513 1.01562508 17.04119706 -2 17 C-3.19439913 12.98559782 -2.58105242 10.32420966 -1.5625 6.25 C-1.27503906 5.07953125 -0.98757812 3.9090625 -0.69140625 2.703125 C-0.46324219 1.81109375 -0.23507813 0.9190625 0 0 Z " fill="#153784" transform="translate(56,128)"/>
<path d="M0 0 C11.88 0 23.76 0 36 0 C36 0.66 36 1.32 36 2 C34.95021973 2.02505615 33.90043945 2.0501123 32.81884766 2.07592773 C28.93118676 2.16996267 25.04370619 2.2701928 21.15625 2.37231445 C19.47237358 2.41567817 17.78845277 2.4573522 16.10449219 2.49731445 C13.68671276 2.55498234 11.26915705 2.6186865 8.8515625 2.68359375 C7.71867294 2.70866249 7.71867294 2.70866249 6.56289673 2.73423767 C2.65260201 2.77555107 2.65260201 2.77555107 -1 4 C-0.67 2.68 -0.34 1.36 0 0 Z " fill="#47649C" transform="translate(114,70)"/>
<path d="M0 0 C4.81561961 1.38828673 7.28962564 4.20237413 10.3125 8 C10.76689453 8.5465625 11.22128906 9.093125 11.68945312 9.65625 C15 13.71851504 15 13.71851504 15 16 C22.26 16 29.52 16 37 16 C37 16.33 37 16.66 37 17 C17.42920439 19.59025236 17.42920439 19.59025236 11.96875 16.015625 C10.04523382 13.43567076 8.5336897 10.82386879 7 8 C5.3234764 6.32187207 5.3234764 6.32187207 3.5625 5.0625 C1 3 1 3 0 0 Z " fill="#335294" transform="translate(114,72)"/>
<path d="M0 0 C4.29 0 8.58 0 13 0 C13 0.33 13 0.66 13 1 C9.7 1.33 6.4 1.66 3 2 C2.54625 3.36125 2.0925 4.7225 1.625 6.125 C0.41666667 9.75 -0.79166667 13.375 -2 17 C-0.68 17.33 0.64 17.66 2 18 C-0.31 18 -2.62 18 -5 18 C-4.35702496 15.37426939 -3.71075589 12.74942697 -3.0625 10.125 C-2.88009766 9.37863281 -2.69769531 8.63226563 -2.50976562 7.86328125 C-1.11328125 2.2265625 -1.11328125 2.2265625 0 0 Z " fill="#435E92" transform="translate(132,118)"/>
<path d="M0 0 C3.87245536 1.46886238 5.19903983 3.31621784 7 7 C9.38427536 13.14892067 9.65125252 19.44916582 9 26 C8.34 26.99 7.68 27.98 7 29 C6.90912109 27.24623047 6.90912109 27.24623047 6.81640625 25.45703125 C6.73195966 23.90884386 6.64731375 22.36066732 6.5625 20.8125 C6.52318359 20.04357422 6.48386719 19.27464844 6.44335938 18.48242188 C6.22492966 14.56748925 5.91307892 10.82879312 5 7 C4.34 7 3.68 7 3 7 C0 2.61538462 0 2.61538462 0 0 Z " fill="#4277CA" transform="translate(171,80)"/>
<path d="M0 0 C3.31603762 2.21069174 3.88244393 3.40687281 5.5 6.9375 C6.99679244 10.19494253 8.295526 12.61786157 11 15 C11.66 14.34 12.32 13.68 13 13 C12.67 14.98 12.34 16.96 12 19 C11.01 19 10.02 19 9 19 C7.49212623 16.40011448 5.99354539 13.79559803 4.5 11.1875 C4.07074219 10.44951172 3.64148438 9.71152344 3.19921875 8.95117188 C2.79316406 8.23896484 2.38710937 7.52675781 1.96875 6.79296875 C1.40317383 5.81106567 1.40317383 5.81106567 0.82617188 4.80932617 C0 3 0 3 0 0 Z " fill="#415A8F" transform="translate(149,42)"/>
<path d="M0 0 C-5.25047414 3.50031609 -10.69890292 4.39488 -16.875 5.125 C-17.56335938 5.21136719 -18.25171875 5.29773437 -18.9609375 5.38671875 C-20.63995275 5.59659566 -22.31989048 5.79907087 -24 6 C-23.67 5.01 -23.34 4.02 -23 3 C-20.10496617 2.49494737 -17.20912047 1.9957978 -14.3125 1.5 C-13.08756836 1.28537109 -13.08756836 1.28537109 -11.83789062 1.06640625 C-7.85021752 0.38834038 -4.06269596 -0.19858392 0 0 Z " fill="#4478CD" transform="translate(169,28)"/>
<path d="M0 0 C0.33 0.99 0.66 1.98 1 3 C-4.13215292 6.59599831 -9.03797399 9.97291116 -15 12 C-15.99 11.67 -16.98 11.34 -18 11 C-15.93771746 9.72881267 -13.87518109 8.45804035 -11.8125 7.1875 C-11.23435547 6.83107422 -10.65621094 6.47464844 -10.06054688 6.10742188 C-6.71968022 4.05005201 -3.36887741 2.0111754 0 0 Z " fill="#325093" transform="translate(59,97)"/>
<path d="M0 0 C1.14806133 3.41975716 0.83383098 5.72148953 0.00390625 9.203125 C-0.22490234 10.1828125 -0.45371094 11.1625 -0.68945312 12.171875 C-0.93630859 13.18765625 -1.18316406 14.2034375 -1.4375 15.25 C-1.80198242 16.796875 -1.80198242 16.796875 -2.17382812 18.375 C-2.77442781 20.91871633 -3.38341641 23.46011941 -4 26 C-4.33 26 -4.66 26 -5 26 C-4.85834107 23.60385425 -4.71181159 21.20817103 -4.5625 18.8125 C-4.52318359 18.13896484 -4.48386719 17.46542969 -4.44335938 16.77148438 C-4.21072435 13.10300898 -3.82792989 9.58305794 -3 6 C-2.34 6 -1.68 6 -1 6 C-0.67 4.02 -0.34 2.04 0 0 Z " fill="#344C8F" transform="translate(61,113)"/>
<path d="M0 0 C1.90625 0.27734375 1.90625 0.27734375 4 1 C4.79505371 2.88825255 5.57476675 4.78680024 6.22265625 6.73046875 C7.0073758 9.02153438 7.90787137 11.18353362 8.9375 13.375 C9.23527344 14.02210938 9.53304687 14.66921875 9.83984375 15.3359375 C11.27621854 17.39619225 12.70738653 18.05232261 15 19 C13.02 19 11.04 19 9 19 C7.68504458 16.39704724 6.37295014 13.79271967 5.0625 11.1875 C4.68931641 10.44951172 4.31613281 9.71152344 3.93164062 8.95117188 C3.57392578 8.23896484 3.21621094 7.52675781 2.84765625 6.79296875 C2.51773682 6.1383667 2.18781738 5.48376465 1.84790039 4.80932617 C1 3 1 3 0 0 Z " fill="#4278CE" transform="translate(139,141)"/>
<path d="M0 0 C0.99 0.33 1.98 0.66 3 1 C3.0825 1.7425 3.165 2.485 3.25 3.25 C3.77783918 6.12974515 3.77783918 6.12974515 6.0625 7.9375 C8 10 8 10 8.25 13.25 C8.1675 14.1575 8.085 15.065 8 16 C3.23475981 11.56339706 0.878037 7.21196855 -1 1 C-0.67 0.67 -0.34 0.34 0 0 Z " fill="#224594" transform="translate(19,71)"/>
<path d="M0 0 C0.33 0 0.66 0 1 0 C1.43056126 10.76403155 1.4248203 19.92563236 -3 30 C-3.5534764 27.92446352 -4 26.15634036 -4 24 C-3.34 24 -2.68 24 -2 24 C-2.33 23.01 -2.66 22.02 -3 21 C-2.33333333 19 -1.66666667 17 -1 15 C-0.71651979 12.35240178 -0.49835747 9.77718557 -0.375 7.125 C-0.33632812 6.43664062 -0.29765625 5.74828125 -0.2578125 5.0390625 C-0.16451834 3.35976754 -0.08121762 1.67992233 0 0 Z " fill="#1F53B8" transform="translate(124,103)"/>
<path d="M0 0 C1.98 0 3.96 0 6 0 C6.6875 2.8125 6.6875 2.8125 7 6 C5.49452387 8.29783199 4.42222519 8.86730065 1.8125 9.6875 C1.214375 9.790625 0.61625 9.89375 0 10 C0 9.34 0 8.68 0 8 C1.33333333 7 2.66666667 6 4 5 C4 4.34 4 3.68 4 3 C2.68 2.67 1.36 2.34 0 2 C0 1.34 0 0.68 0 0 Z " fill="#467DD0" transform="translate(95,30)"/>
<path d="M0 0 C0.33 1.32 0.66 2.64 1 4 C1.66 4 2.32 4 3 4 C3 4.66 3 5.32 3 6 C2.34 6 1.68 6 1 6 C1 8.64 1 11.28 1 14 C0.01 14 -0.98 14 -2 14 C-3.21065165 10.36804504 -2.62784815 8.93468371 -1.5625 5.3125 C-1.27503906 4.31863281 -0.98757812 3.32476562 -0.69140625 2.30078125 C-0.46324219 1.54152344 -0.23507813 0.78226563 0 0 Z " fill="#294A98" transform="translate(31,146)"/>
<path d="M0 0 C0.433125 0.45375 0.86625 0.9075 1.3125 1.375 C3.10798342 3.20024334 3.10798342 3.20024334 6 5 C1.545 7.97 1.545 7.97 -3 11 C-2.22714361 7.13571805 -1.28980123 3.69743019 0 0 Z " fill="#4577CF" transform="translate(116,30)"/>
<path d="M0 0 C0.66 0 1.32 0 2 0 C2.474375 0.495 2.94875 0.99 3.4375 1.5 C4.99969942 3.34626591 4.99969942 3.34626591 8 3 C8 2.01 8 1.02 8 0 C8.66 0.33 9.32 0.66 10 1 C8.68 3.64 7.36 6.28 6 9 C2.91910327 6.22719294 1.31224548 3.93673644 0 0 Z " fill="#4A77CC" transform="translate(154,49)"/>
<path d="M0 0 C0 0.66 0 1.32 0 2 C-1.96498322 3.38442 -3.97048465 4.71203834 -6 6 C-7.0828125 6.86625 -7.0828125 6.86625 -8.1875 7.75 C-10 9 -10 9 -13 9 C-13 8.01 -13 7.02 -13 6 C-12.278125 5.7525 -11.55625 5.505 -10.8125 5.25 C-7.88432515 4.09414485 -7.88432515 4.09414485 -5.375 1.875 C-3 0 -3 0 0 0 Z " fill="#3D5786" transform="translate(123,35)"/>
<path d="M0 0 C2.97 0 5.94 0 9 0 C9 3.10551666 8.4606285 4.35261084 7 7 C7 6.34 7 5.68 7 5 C6.401875 4.731875 5.80375 4.46375 5.1875 4.1875 C3 3 3 3 0 0 Z " fill="#4379D0" transform="translate(108,23)"/>
<path d="M0 0 C0.66 0.33 1.32 0.66 2 1 C2 1.99 2 2.98 2 4 C2.61875 4.103125 3.2375 4.20625 3.875 4.3125 C6 5 6 5 8 8 C7.625 10.1875 7.625 10.1875 7 12 C6.608125 11.195625 6.21625 10.39125 5.8125 9.5625 C4.23051809 6.76935262 4.23051809 6.76935262 1.3125 6.1875 C0.1678125 6.0946875 0.1678125 6.0946875 -1 6 C-0.67 4.02 -0.34 2.04 0 0 Z " fill="#4177C9" transform="translate(131,129)"/>
<path d="M0 0 C0.99 0.66 1.98 1.32 3 2 C-3.54216759 5.94998798 -8.42228293 6.50146657 -16 6 C-16 5.67 -16 5.34 -16 5 C-12.7 5 -9.4 5 -6 5 C-6 4.34 -6 3.68 -6 3 C-4.02 2.01 -2.04 1.02 0 0 Z " fill="#375B9D" transform="translate(151,114)"/>
<path d="M0 0 C0.33 0.66 0.66 1.32 1 2 C-0.62339805 3.70884005 -2.29319053 5.37446717 -4 7 C-4.66 7 -5.32 7 -6 7 C-6.33 7.99 -6.66 8.98 -7 10 C-8.98 10.33 -10.96 10.66 -13 11 C-10.80967585 8.69981633 -8.50017183 6.81040595 -5.9375 4.9375 C-3.78711607 3.36375534 -1.88786963 1.88786963 0 0 Z " fill="#516A9E" transform="translate(175,170)"/>
<path d="M0 0 C6.93 3.96 6.93 3.96 14 8 C14 8.33 14 8.66 14 9 C8.27719624 8.76641617 5.53617333 7.27521439 1.28515625 3.47265625 C0 2 0 2 0 0 Z " fill="#4D6792" transform="translate(81,176)"/>
<path d="M0 0 C0.66 1.32 1.32 2.64 2 4 C1.34 4 0.68 4 0 4 C0 7.63 0 11.26 0 15 C-0.99 15 -1.98 15 -3 15 C-2.44854729 9.76119922 -1.57077907 5.02649303 0 0 Z " fill="#103D97" transform="translate(35,135)"/>
<path d="M0 0 C0.33 0.99 0.66 1.98 1 3 C-0.98963306 5.65284409 -2.23777031 7.26981217 -5 9 C-9.04911158 9.52545723 -12.94012576 9.35474629 -17 9 C-17 8.67 -17 8.34 -17 8 C-15.91332031 8.01353516 -15.91332031 8.01353516 -14.8046875 8.02734375 C-8.97308009 7.95204422 -8.97308009 7.95204422 -3.93359375 5.375 C-2.48364466 3.6420488 -1.18833923 1.92039632 0 0 Z " fill="#385D9D" transform="translate(72,55)"/>
<path d="M0 0 C3.465 1.98 3.465 1.98 7 4 C7.66 3.34 8.32 2.68 9 2 C9.33 3.98 9.66 5.96 10 8 C5.60249328 7.49259538 3.13051078 4.91706686 0 2 C0 1.34 0 0.68 0 0 Z " fill="#1A2E70" transform="translate(123,35)"/>
<path d="M0 0 C1.26045971 1.26045971 2.51184415 2.5301243 3.75 3.8125 C6.38527658 6.37457445 9.1556295 8.67278777 12 11 C7.49813385 11 5.64496122 9.55701196 2.25 6.625 C0 4 0 4 0 0 Z " fill="#4477CC" transform="translate(170,36)"/>
<path d="M0 0 C0.66 0.33 1.32 0.66 2 1 C-2.75 5 -2.75 5 -5 5 C-5 5.66 -5 6.32 -5 7 C-6.98 7.33 -8.96 7.66 -11 8 C-10 5 -10 5 -7.96875 3.8671875 C-7.1540625 3.53976563 -6.339375 3.21234375 -5.5 2.875 C-2.51655512 1.79938082 -2.51655512 1.79938082 0 0 Z " fill="#1C4CAF" transform="translate(55,102)"/>
<path d="M0 0 C0.99 0 1.98 0 3 0 C1.82744291 3.33727786 0.81131596 5.77437487 -2 8 C-2.66 8 -3.32 8 -4 8 C-4 8.66 -4 9.32 -4 10 C-4.99 10.33 -5.98 10.66 -7 11 C-6.34 9.68 -5.68 8.36 -5 7 C-4.34 7 -3.68 7 -3 7 C-1.79371992 4.66785852 -0.8345262 2.50357861 0 0 Z " fill="#407ACE" transform="translate(172,116)"/>
<path d="M0 0 C1.32 0.33 2.64 0.66 4 1 C4.36402369 2.43503555 4.71586591 3.87316506 5.0625 5.3125 C5.25972656 6.11300781 5.45695312 6.91351563 5.66015625 7.73828125 C6 10 6 10 5 13 C4.35309078 11.3962669 3.70751236 9.79199694 3.0625 8.1875 C2.70285156 7.29417969 2.34320313 6.40085937 1.97265625 5.48046875 C1.26386514 3.6729091 0.6139753 1.84192591 0 0 Z " fill="#1C52BD" transform="translate(103,96)"/>
<path d="M0 0 C3.58806317 3.38872633 6.45684799 6.76141332 9 11 C9 11.66 9 12.32 9 13 C7.68 13 6.36 13 5 13 C4.9175 12.29875 4.835 11.5975 4.75 10.875 C3.8315061 7.35410673 2.05168554 4.9782532 0 2 C0 1.34 0 0.68 0 0 Z " fill="#4377C6" transform="translate(190,56)"/>
<path d="M0 0 C2 1 2 1 3.0625 3.125 C4.13155946 6.40344901 4.59773286 9.58072932 5 13 C1.10364046 8.22381734 -0.13469529 6.19598355 0 0 Z " fill="#3F619D" transform="translate(144,31)"/>
<path d="M0 0 C0.99 0.33 1.98 0.66 3 1 C3.69040574 2.65697379 4.3530635 4.3255761 5 6 C6.28667172 7.70294787 7.61096733 9.37946188 9 11 C5.78956118 9.61811547 3.95063635 8.07578097 1.75 5.375 C1.22921875 4.74335938 0.7084375 4.11171875 0.171875 3.4609375 C-0.21484375 2.97882813 -0.6015625 2.49671875 -1 2 C-0.67 1.34 -0.34 0.68 0 0 Z " fill="#3F5A8D" transform="translate(56,168)"/>
<path d="M0 0 C0.48108275 1.41601714 0.95978141 2.83284437 1.4375 4.25 C1.83775391 5.43335938 1.83775391 5.43335938 2.24609375 6.640625 C2.91954708 8.74821988 3.49150595 10.84753973 4 13 C3.01 12.34 2.02 11.68 1 11 C1 10.01 1 9.02 1 8 C0.34 8 -0.32 8 -1 8 C-1.66 5.69 -2.32 3.38 -3 1 C-1 0 -1 0 0 0 Z " fill="#4478CD" transform="translate(156,132)"/>
<path d="M0 0 C0.99 0.33 1.98 0.66 3 1 C2.34 3.64 1.68 6.28 1 9 C0.34 9 -0.32 9 -1 9 C-1.33 9.99 -1.66 10.98 -2 12 C-1 3.42857143 -1 3.42857143 0 0 Z " fill="#2055BB" transform="translate(42,110)"/>
<path d="M0 0 C0.33 0.66 0.66 1.32 1 2 C1.66 2 2.32 2 3 2 C2.34 5.63 1.68 9.26 1 13 C0.67 13 0.34 13 0 13 C-0.19658808 11.58456585 -0.38187546 10.16755969 -0.5625 8.75 C-0.66691406 7.96109375 -0.77132812 7.1721875 -0.87890625 6.359375 C-1.00027349 3.99467126 -0.69633257 2.2488963 0 0 Z " fill="#2452B5" transform="translate(60,96)"/>
<path d="M0 0 C0.66 0 1.32 0 2 0 C3.99785435 4.1205746 4.17835515 7.45194365 4 12 C2 9 2 9 1.5 5.875 C1.2525 4.451875 1.2525 4.451875 1 3 C0.34 2.67 -0.32 2.34 -1 2 C-0.67 1.34 -0.34 0.68 0 0 Z " fill="#203774" transform="translate(122,9)"/>
<path d="M0 0 C7.85 -0.30192308 7.85 -0.30192308 11 2 C11.33 2.99 11.66 3.98 12 5 C10.56068883 4.54738642 9.12361001 4.08767021 7.6875 3.625 C6.88699219 3.36976562 6.08648437 3.11453125 5.26171875 2.8515625 C3 2 3 2 0 0 Z " fill="#1B4286" transform="translate(97,73)"/>
<path d="M0 0 C2.32789515 2.83395931 3.07377893 4.29511572 4 8 C1.03 8 -1.94 8 -5 8 C-5 7.67 -5 7.34 -5 7 C-3.35 6.67 -1.7 6.34 0 6 C0 4.02 0 2.04 0 0 Z " fill="#447ACD" transform="translate(164,152)"/>
<path d="M0 0 C0.66 0.33 1.32 0.66 2 1 C1.67 3.31 1.34 5.62 1 8 C2.32 8.33 3.64 8.66 5 9 C2.69 9 0.38 9 -2 9 C-1.34 6.03 -0.68 3.06 0 0 Z " fill="#2F4E85" transform="translate(129,127)"/>
<path d="M0 0 C4.75 1.875 4.75 1.875 7 3 C7.33 2.34 7.66 1.68 8 1 C8.33 2.98 8.66 4.96 9 7 C6.03 5.35 3.06 3.7 0 2 C0 1.34 0 0.68 0 0 Z " fill="#204DB5" transform="translate(122,33)"/>
<path d="M0 0 C-7.0547046 4.07877462 -7.0547046 4.07877462 -11 3.75 C-11.66 3.5025 -12.32 3.255 -13 3 C-4.03773585 -2.01886792 -4.03773585 -2.01886792 0 0 Z " fill="#23448F" transform="translate(92,140)"/>
<path d="M0 0 C1.21236328 0.04060547 1.21236328 0.04060547 2.44921875 0.08203125 C3.06410156 0.11683594 3.67898437 0.15164062 4.3125 0.1875 C4.3125 0.5175 4.3125 0.8475 4.3125 1.1875 C2.6728125 1.4040625 2.6728125 1.4040625 1 1.625 C-2.61872987 2.07038104 -2.61872987 2.07038104 -5.6875 3.1875 C-6.0175 4.8375 -6.3475 6.4875 -6.6875 8.1875 C-7.0175 8.1875 -7.3475 8.1875 -7.6875 8.1875 C-8.05266854 3.68375468 -8.05266854 3.68375468 -6.46875 1.53125 C-4.16764554 -0.20467091 -2.84767456 -0.12381194 0 0 Z " fill="#447AD6" transform="translate(139.6875,120.8125)"/>
<path d="M0 0 C0.66 0 1.32 0 2 0 C3.80619523 4.46236469 4.11658501 7.31034294 3 12 C0.97649676 8.96474514 0.67875982 7.80573798 0.375 4.3125 C0.30023438 3.50425781 0.22546875 2.69601563 0.1484375 1.86328125 C0.09945312 1.24839844 0.05046875 0.63351562 0 0 Z " fill="#2356B6" transform="translate(121,12)"/>
<path d="M0 0 C0.88300781 0.19464844 1.76601562 0.38929688 2.67578125 0.58984375 C3.67158203 0.82380859 3.67158203 0.82380859 4.6875 1.0625 C4.6875 1.3925 4.6875 1.7225 4.6875 2.0625 C-5.87058656 2.24701025 -5.87058656 2.24701025 -10.3125 1.0625 C-10.3125 0.7325 -10.3125 0.4025 -10.3125 0.0625 C-6.51681539 -0.91548721 -3.8119001 -0.86403069 0 0 Z " fill="#496090" transform="translate(116.3125,201.9375)"/>
<path d="M0 0 C1.98 0.495 1.98 0.495 4 1 C3.34 1 2.68 1 2 1 C1.87625 2.258125 1.7525 3.51625 1.625 4.8125 C1.30131941 8.10325263 0.93395001 9.09907498 -1 12 C-1.02698189 10.37509046 -1.04638757 8.75005367 -1.0625 7.125 C-1.07410156 6.22007813 -1.08570313 5.31515625 -1.09765625 4.3828125 C-1 2 -1 2 0 0 Z " fill="#15368B" transform="translate(40,109)"/>
<path d="M0 0 C4.41889613 1.35021826 6.34345343 3.26115668 9 7 C4.75272765 6.52808085 2.76506398 4.07229331 0 1 C0 0.67 0 0.34 0 0 Z " fill="#1F3E82" transform="translate(94,90)"/>
<path d="M0 0 C4.875 4.625 4.875 4.625 6 8 C5.34 8.66 4.68 9.32 4 10 C3.32845067 8.71086513 2.66291141 7.41859796 2 6.125 C1.62875 5.40570313 1.2575 4.68640625 0.875 3.9453125 C0 2 0 2 0 0 Z " fill="#406498" transform="translate(188,71)"/>
<path d="M0 0 C0.66 0.99 1.32 1.98 2 3 C4.6556728 3.58348752 4.6556728 3.58348752 7.625 3.6875 C8.62789062 3.75324219 9.63078125 3.81898437 10.6640625 3.88671875 C11.43492188 3.92410156 12.20578125 3.96148437 13 4 C13 4.33 13 4.66 13 5 C8.71 5 4.42 5 0 5 C-0.33 4.01 -0.66 3.02 -1 2 C-0.67 1.34 -0.34 0.68 0 0 Z " fill="#496092" transform="translate(53,60)"/>
<path d="M0 0 C0.99 0.66 1.98 1.32 3 2 C2.67 3.65 2.34 5.3 2 7 C1.34 7 0.68 7 0 7 C-0.66 5.02 -1.32 3.04 -2 1 C-1.34 0.67 -0.68 0.34 0 0 Z " fill="#4383E6" transform="translate(117,25)"/>
<path d="M0 0 C1.65322266 0.01740234 1.65322266 0.01740234 3.33984375 0.03515625 C4.99693359 0.04869141 4.99693359 0.04869141 6.6875 0.0625 C7.54214844 0.07410156 8.39679688 0.08570312 9.27734375 0.09765625 C9.27734375 0.42765625 9.27734375 0.75765625 9.27734375 1.09765625 C6.29882812 1.43945312 6.29882812 1.43945312 3.3203125 1.78125 C1.08337982 2.0693636 1.08337982 2.0693636 -1.72265625 3.09765625 C-2.38265625 2.43765625 -3.04265625 1.77765625 -3.72265625 1.09765625 C-2.72265625 0.09765625 -2.72265625 0.09765625 0 0 Z " fill="#29478C" transform="translate(107.72265625,21.90234375)"/>
<path d="M0 0 C0.99 0.66 1.98 1.32 3 2 C-1.455 3.485 -1.455 3.485 -6 5 C-5 2 -5 2 -2.625 0.6875 C-1.75875 0.460625 -0.8925 0.23375 0 0 Z " fill="#1A51B6" transform="translate(96,153)"/>
<path d="M0 0 C2.875 0.3125 2.875 0.3125 6 1 C6.66 1.99 7.32 2.98 8 4 C6.68 4 5.36 4 4 4 C4 3.34 4 2.68 4 2 C3.01 2.33 2.02 2.66 1 3 C0.67 2.01 0.34 1.02 0 0 Z " fill="#467CD4" transform="translate(163,76)"/>
<path d="M0 0 C0.99 0.33 1.98 0.66 3 1 C3.33 3.97 3.66 6.94 4 10 C0.89448334 6.89448334 0.18676066 5.10801767 -1 1 C-0.67 0.67 -0.34 0.34 0 0 Z " fill="#294283" transform="translate(19,71)"/>
<path d="M0 0 C0.66 0.33 1.32 0.66 2 1 C-0.97 4.96 -0.97 4.96 -4 9 C-4.33 8.01 -4.66 7.02 -5 6 C-3.59554165 3.7363436 -1.8032087 1.9791315 0 0 Z " fill="#3E5BA2" transform="translate(59,53)"/>
<path d="M0 0 C3.73487777 0.4979837 5.81237635 0.87491756 9 3 C6.21176345 4.0326802 5.1322726 4.04509293 2.25 3.0625 C1.5075 2.711875 0.765 2.36125 0 2 C0 1.34 0 0.68 0 0 Z " fill="#3350A9" transform="translate(90,196)"/>
<path d="M0 0 C0.33 0.66 0.66 1.32 1 2 C-0.98 4.97 -0.98 4.97 -3 8 C-3.75 6.25 -3.75 6.25 -4 4 C-2.0625 1.75 -2.0625 1.75 0 0 Z " fill="#3A59A3" transform="translate(191,152)"/>
<path d="M0 0 C-1.15173355 2.46800047 -2.04783565 4.04783565 -4 6 C-4.99 5.67 -5.98 5.34 -7 5 C-2.25 0 -2.25 0 0 0 Z " fill="#4C68A0" transform="translate(66,47)"/>
<path d="M0 0 C-0.33 1.32 -0.66 2.64 -1 4 C-1.66 4 -2.32 4 -3 4 C-3 3.34 -3 2.68 -3 2 C-4.32 1.67 -5.64 1.34 -7 1 C-3.375 -1.125 -3.375 -1.125 0 0 Z " fill="#4754A0" transform="translate(178,25)"/>
</svg>
